<?xml version='1.0' encoding='UTF-8' standalone='no'?>
<svg xmlns:cc="http://creativecommons.org/ns#" height="209.973mm" width="296.926mm" xmlns:xlink="http://www.w3.org/1999/xlink" xmlns="http://www.w3.org/2000/svg" baseProfile="tiny" version="1.2" viewBox="0 0 3507 2480">
 <defs/>
 <g fill-rule="evenodd" stroke="black" fill="none" stroke-width="1" stroke-linecap="square" stroke-linejoin="bevel">
  <g stroke-opacity="1" font-size="34.375" stroke="#000000" font-style="normal" fill="none" font-weight="400" stroke-width="1" stroke-linecap="square" transform="matrix(1,0,0,1,0,0)" font-family="MS Shell Dlg 2" stroke-linejoin="bevel"/>
  <g stroke-opacity="1" font-size="34.375" stroke="#000000" font-style="normal" fill="none" font-weight="400" stroke-width="1" stroke-linecap="square" transform="matrix(1,0,0,1,0,0)" font-family="MS Shell Dlg 2" stroke-linejoin="bevel"/>
  <g stroke-opacity="1" font-size="34.375" stroke="#000000" font-style="normal" fill="none" font-weight="400" stroke-width="1" stroke-linecap="square" transform="matrix(11.8081,0,0,11.8081,0,0)" font-family="MS Shell Dlg 2" stroke-linejoin="bevel"/>
  <g stroke-opacity="1" font-size="34.375" stroke="#000000" font-style="normal" fill="none" font-weight="400" stroke-width="1" stroke-linecap="square" transform="matrix(0.999751,0,0,0.999751,0,0)" font-family="MS Shell Dlg 2" stroke-linejoin="bevel"/>
  <g fill-opacity="1" font-size="34.375" stroke="none" font-style="normal" fill="#ffffff" font-weight="400" transform="matrix(0.999751,0,0,0.999751,0,0)" font-family="MS Shell Dlg 2">
   <path fill-rule="evenodd" d="M-2,-2 L3510,-2 L3510,2483 L-2,2483 L-2,-2" vector-effect="none"/>
  </g>
  <g stroke-opacity="1" font-size="34.375" stroke="#000000" font-style="normal" fill="none" font-weight="400" stroke-width="1" stroke-linecap="square" transform="matrix(0.999751,0,0,0.999751,0,0)" font-family="MS Shell Dlg 2" stroke-linejoin="bevel"/>
  <g stroke-opacity="1" font-size="34.375" stroke="#000000" font-style="normal" fill="none" font-weight="400" stroke-width="1" stroke-linecap="square" transform="matrix(11.8081,0,0,11.8081,0,0)" font-family="MS Shell Dlg 2" stroke-linejoin="bevel"/>
  <g stroke-opacity="1" font-size="34.375" stroke="#000000" font-style="normal" fill="none" font-weight="400" stroke-width="1" stroke-linecap="square" transform="matrix(11.8081,0,0,11.8081,0,0)" font-family="MS Shell Dlg 2" stroke-linejoin="bevel"/>
  <g stroke-opacity="1" font-size="34.375" stroke="#000000" font-style="normal" fill="none" font-weight="400" stroke-width="1" stroke-linecap="square" transform="matrix(11.8081,0,0,11.8081,0,0)" font-family="MS Shell Dlg 2" stroke-linejoin="bevel"/>
  <g stroke-opacity="1" font-size="34.375" stroke="#000000" font-style="normal" fill="none" font-weight="400" stroke-width="1" stroke-linecap="square" transform="matrix(11.8081,0,0,11.8081,0,0)" font-family="MS Shell Dlg 2" stroke-linejoin="bevel"/>
  <g stroke-opacity="1" font-size="34.375" stroke="#000000" font-style="normal" fill="none" font-weight="400" stroke-width="1" stroke-linecap="square" transform="matrix(11.8081,0,0,11.8081,8.39015e-14,-8.39015e-14)" font-family="MS Shell Dlg 2" stroke-linejoin="bevel"/>
  <g fill-opacity="1" font-size="34.375" stroke="none" font-style="normal" fill="#ffffff" font-weight="400" transform="matrix(11.8081,0,0,11.8081,8.39015e-14,-8.39015e-14)" font-family="MS Shell Dlg 2">
   <path fill-rule="evenodd" d="M0,0 L297,0 L297,210 L0,210 L0,0" vector-effect="none"/>
  </g>
  <g stroke-opacity="1" font-size="34.375" stroke="#000000" font-style="normal" fill="none" font-weight="400" stroke-width="1" stroke-linecap="square" transform="matrix(11.8081,0,0,11.8081,8.39015e-14,-8.39015e-14)" font-family="MS Shell Dlg 2" stroke-linejoin="bevel"/>
  <g stroke-opacity="1" font-size="34.375" stroke="#000000" font-style="normal" fill="none" font-weight="400" stroke-width="1" stroke-linecap="square" transform="matrix(11.8081,0,0,11.8081,8.39015e-14,-8.39015e-14)" font-family="MS Shell Dlg 2" stroke-linejoin="bevel"/>
  <g fill-opacity="0" font-size="34.375" stroke="none" font-style="normal" fill="#000000" font-weight="400" transform="matrix(0.999751,0,0,0.999751,8.39015e-14,-8.39015e-14)" font-family="MS Shell Dlg 2">
   <rect x="0" height="2480" width="3508" y="0"/>
  </g>
  <g stroke-opacity="1" font-size="34.375" stroke="#000000" font-style="normal" fill="none" font-weight="400" stroke-width="1" stroke-linecap="square" transform="matrix(0.999751,0,0,0.999751,8.39015e-14,-8.39015e-14)" font-family="MS Shell Dlg 2" stroke-linejoin="bevel"/>
  <g fill-opacity="0" stroke-opacity="1" font-size="34.375" stroke="#232323" font-style="normal" fill="#987db7" font-weight="400" stroke-width="3.07087" stroke-linecap="square" transform="matrix(0.999751,0,0,0.999751,8.39015e-14,-8.39015e-14)" font-family="MS Shell Dlg 2" stroke-linejoin="bevel">
   <path fill-rule="evenodd" d="M3220.4,2642.79 L3222.92,2616.49 L3205.36,2598.49 L3193.99,2591.99 L3183.35,2597.43 L3177.01,2612.34 L3174.97,2621.36 L3153.19,2645.97 L3135.54,2656.21 L3130.42,2658.08 L3127.62,2658.68 L3121.55,2659.2 L3107.14,2653.81 L3071.65,2637.79 L3055.1,2627.88 L3053.74,2616.78 L3057.1,2603.56 L3051.3,2594.83 L3008.41,2586.99 L2984.38,2586.13 L2974.89,2583.91 L2977.05,2582.06 L2983.53,2569.86 L2982.66,2556.46 L2979.04,2548.65 L2960.98,2512.29 L2951.16,2500.62 L2952.65,2496.63 L2969.81,2463.96 L2976.79,2460.5 L2985.17,2451.39 L2977.6,2424.55 L2962.86,2421.22 L2951.93,2408.83 L2952.73,2393.31 L2955.86,2394.31 L2964.46,2396.89 L2976.07,2396.07 L2987.22,2395.27 L2997.82,2389.83 L3000.75,2379.65 L3007.93,2368.89 L3017.49,2367.01 L3058.2,2385.93 L3083.47,2401.94 L3138.59,2446.66 L3134.74,2467.64 L3125.79,2487.62 L3140.91,2485.9 L3152.93,2479.76 L3169.14,2468.85 L3191.77,2433.36 L3202.38,2415.73 L3198.83,2397.76 L3189.22,2379.89 L3186.8,2359.38 L3199.65,2355.89 L3224.96,2372.44 L3257.42,2364.21 L3317.98,2373.41 L3340.43,2418.97 L3349.2,2419.98 L3354.73,2419.7 L3375.2,2417.35 L3426.29,2399.56 L3466.86,2362.06 L3479.94,2362.04 L3493.02,2358.19 L3499.58,2354.1 L3525.16,2327.1 L3588.09,2308.88 L3611.03,2302.37 L3625.69,2302.42 L3639.75,2303.32 L3648.09,2303.9 L3664.28,2301.43 L3664.98,2293.12 L3662.28,2283.65 L3730.4,2272.16 L3747.97,2284.2 L3761.69,2279.17 L3764.22,2277.99 L3770.26,2265.94 L3786.54,2258.98 L3805.83,2257.73 L3833.16,2279.49 L3827.54,2282.72 L3824.17,2295.78 L3830.47,2306.72 L3858.8,2323.48 L3858.8,2235.97 L3851.63,2235.38 L3856.81,2208.97 L3858.8,2205.86 L3858.8,2163.1 L3857.38,2161.07 L3842.2,2142.26 L3826.15,2129.21 L3823.13,2122.54 L3817.07,2115.93 L3805.68,2107.28 L3795.61,2097.25 L3792.07,2081.67 L3818.16,2045.84 L3854.63,2018.74 L3858.8,2016.66 L3858.8,2669.94 L3858.3,2669.93 L3855.82,2672.33 L3852.58,2673.99 L3839.87,2667.97 L3811.76,2671.45 L3801.77,2671.43 L3782.06,2665.22 L3769.14,2663.21 L3758.52,2658.41 L3752.19,2652.8 L3724.46,2607.23 L3703.36,2590.15 L3689.76,2583.9 L3681.98,2576.57 L3673.72,2561.71 L3670.96,2543.54 L3686.94,2533.6 L3693.68,2520.72 L3695.18,2516.85 L3693.77,2512.17 L3682.02,2509.2 L3669.87,2514.43 L3653.2,2526.44 L3570.57,2567.73 L3562.29,2568.27 L3555.85,2561.84 L3531.05,2557.65 L3493.19,2560.77 L3410.89,2587.42 L3396.05,2603.87 L3391.78,2610.15 L3391.69,2619.78 L3387.1,2647.72 L3373.89,2669.16 L3338.44,2673.21 L3323.13,2668.16 L3310.92,2663.39 L3302.1,2652.38 L3277.75,2636.99 L3268.74,2639.13 L3256.18,2645.3 L3246.55,2649.69 L3228.23,2648.64 L3221.92,2644.95 L3220.4,2642.79" vector-effect="none"/>
   <path fill-rule="evenodd" d="M2060.52,1317.43 L2048.16,1321.94 L2030.75,1334.12 L2001.94,1358.51 L1995.67,1386.9 L1994.55,1397.62 L1990.79,1396.06 L1967.42,1384.1 L1966.15,1376.81 L1963.99,1376.64 L1952.52,1381.63 L1931.1,1411.25 L1930.06,1419.39 L1918.21,1455.91 L1903.98,1468.21 L1896.36,1488.25 L1893.44,1517.43 L1898.49,1534.5 L1908.36,1538.92 L1929.45,1563.06 L1931.28,1566.98 L1937.66,1585.78 L1938.14,1594.7 L1928.98,1622.57 L1922.08,1631.52 L1914.78,1633.55 L1910.68,1633.31 L1887.17,1634.86 L1868.85,1638.09 L1858.82,1642.05 L1840.4,1648.93 L1827.4,1649.57 L1827.8,1638.71 L1816.32,1611.73 L1809.53,1606.25 L1805.72,1604.21 L1789.57,1590.72 L1700.25,1532.63 L1692.1,1533.26 L1686.44,1537.46 L1679.28,1538.55 L1668.51,1533.43 L1655.66,1456.95 L1660.14,1426.24 L1663.81,1415.61 L1672.12,1400.04 L1656.23,1386.72 L1640.39,1399.68 L1622.58,1420.47 L1622.54,1431.46 L1618.31,1454.58 L1575.33,1475.47 L1561.74,1478.81 L1554.45,1476.5 L1550.12,1474.83 L1525.21,1466.57 L1505.09,1469.06 L1498.78,1470.6 L1489.3,1463.13 L1481.69,1463.01 L1481.21,1450.31 L1487.6,1399.21 L1493.65,1358.94 L1486.11,1340.62 L1452.97,1311.19 L1439.62,1315.43 L1415.39,1317.41 L1385.87,1311.62 L1360.89,1294.77 L1359.55,1277.96 L1356.87,1270.63 L1345.11,1255.38 L1320.65,1244.69 L1304.35,1247.9 L1282.6,1253.7 L1264.08,1241.78 L1259.62,1235.41 L1250.99,1185.38 L1239.94,1159.87 L1237.37,1152.02 L1236.33,1147.83 L1230.31,1136.75 L1219.62,1133.64 L1201.66,1138.52 L1196.69,1142.01 L1193.46,1141.95 L1179.68,1146.66 L1175.09,1153.05 L1163.32,1168.22 L1155.61,1163.92 L1134.15,1146.52 L1101.23,1121.45 L1088.85,1077.06 L1089.45,1048.94 L1076.24,1010.32 L1079.78,1009.24 L1158.54,963.039 L1182.09,948.877 L1198.61,938.466 L1220.05,923.379 L1227.07,919.756 L1239.25,915.155 L1287.56,900.693 L1287.91,926.364 L1289.37,940.34 L1291.4,943.018 L1304.27,952.785 L1313.05,953.756 L1325.3,947.342 L1325.1,937.571 L1344.91,929.386 L1362.29,934.136 L1392.32,946.422 L1393.5,959.52 L1419.07,969.581 L1433.5,966.15 L1461.26,951.102 L1477.82,940.447 L1487.79,933.052 L1501.53,917.79 L1505.88,911.766 L1510.14,917.474 L1512.07,925.191 L1516.37,931.594 L1524.26,937.526 L1521.25,945.052 L1521.82,946.848 L1523.67,947.312 L1528.22,936.026 L1517.91,927.046 L1516.27,914.283 L1511.44,909.761 L1509.29,901.837 L1516.16,901.264 L1534.58,907.446 L1543.42,908.951 L1549.67,908.559 L1554.84,903.867 L1550.89,892.537 L1546.17,886.289 L1545.33,871.162 L1567.56,859.641 L1582.62,858.44 L1581.66,869.912 L1581.67,879.291 L1608.64,882.417 L1614.53,878.63 L1622.24,864.777 L1638.26,851.441 L1646.14,850.866 L1653.24,854.453 L1658.21,861.232 L1655.14,879.451 L1660.27,885.667 L1682.28,890.369 L1696.39,876.606 L1701.31,862.774 L1706.61,856.168 L1716.29,863.168 L1722.56,877.009 L1717.63,890.509 L1733.27,923.12 L1738.22,924.91 L1746.25,923.064 L1756.33,927.023 L1757.97,945.929 L1780.85,945.674 L1799.65,943.886 L1817.14,935.258 L1825.69,932.171 L1837.08,941.873 L1841.28,961.475 L1860.67,968.027 L1888.4,973 L1912.17,987.334 L1905.12,1002.82 L1895.4,1038.85 L1892.44,1053.31 L1891.11,1065.39 L1864.64,1099.97 L1861.62,1110.57 L1865.56,1120.66 L1873.28,1125.44 L1875.93,1126.43 L1877.99,1127.59 L1878.74,1137.15 L1875.76,1145.82 L1877.49,1146.91 L1887.98,1145.88 L1902.59,1141.76 L1921.28,1144.85 L1928.56,1147.49 L1935.54,1146.45 L1957.3,1145.51 L1968.54,1158.79 L1997.88,1185.12 L2024.61,1199.14 L2019.13,1211.61 L2024.4,1248.21 L2036.9,1248.11 L2043.59,1252.06 L2052.84,1269.4 L2060.52,1317.43" vector-effect="none"/>
   <path fill-rule="evenodd" d="M3858.8,1654.77 L3852.86,1651.61 L3810.08,1607.89 L3789.08,1591.27 L3770.09,1591.26 L3746.65,1594.16 L3710.8,1563.79 L3686.27,1525.09 L3679.83,1512.45 L3671.14,1490.73 L3658.3,1467.67 L3647.5,1463.36 L3641.96,1462.05 L3641.47,1426.57 L3655.94,1374.01 L3638.95,1349.1 L3633.29,1345.68 L3622.21,1343.63 L3588.51,1325.62 L3576.93,1319.34 L3559.95,1304.94 L3555.51,1293.25 L3558.3,1281.92 L3529.88,1226.4 L3522.03,1221.54 L3545.12,1222.32 L3574.42,1258.04 L3585.68,1261.6 L3585.05,1249.77 L3600.6,1218.57 L3620.18,1190.61 L3626.81,1182.02 L3652.89,1171.27 L3665.75,1169.83 L3682.48,1160.03 L3689.98,1153.73 L3703.1,1148.97 L3711.42,1152.4 L3723.03,1157.92 L3728.33,1161.57 L3735.57,1162.65 L3745.59,1158.11 L3747.09,1156.81 L3752.19,1148.86 L3765.78,1123.49 L3792.98,1118.36 L3796.95,1110.74 L3799.82,1097.85 L3804.71,1081.99 L3835.44,1061.97 L3845.59,1068.04 L3851.42,1069.8 L3858.39,1070.4 L3858.8,1069.79 L3858.8,1654.77" vector-effect="none"/>
   <path fill-rule="evenodd" d="M-189.359,2728 L-199.71,2710.88 L-222.219,2680.46 L-228.903,2673.94 L-235.573,2669.1 L-241.743,2663.85 L-247.336,2658.2 L-252.342,2649.85 L-253.86,2642.15 L-250.697,2622.32 L-238.121,2606.39 L-222.172,2591.62 L-206.873,2570.63 L-211.018,2559.67 L-215.905,2552.8 L-225.981,2542.68 L-238.77,2535.22 L-254.373,2530.26 L-247.315,2486.28 L-239.02,2470.49 L-214.011,2468.97 L-201.99,2472.03 L-185.752,2476.67 L-180.695,2479.56 L-175.382,2486.68 L-150.78,2504.73 L-142.867,2506.95 L-132.451,2507.56 L-172.189,2471.93 L-180.327,2467.6 L-204.478,2456.62 L-210.291,2455.95 L-236.62,2457.92 L-254.484,2468.33 L-280.479,2482.06 L-321.223,2469.39 L-333.4,2462.32 L-348.803,2452.47 L-342.209,2417.52 L-326.361,2407.21 L-318.771,2411.61 L-308.769,2408.83 L-321.273,2392.45 L-327.635,2392.89 L-326.106,2374 L-309.566,2374.77 L-294.376,2375.32 L-299.823,2371.29 L-331.978,2360.7 L-350.8,2355.5 L-350.8,1953.51 L-350.751,1953.59 L-344.872,1962.22 L-342.574,1967.04 L-279.475,1920.88 L-266.016,1912.87 L-235.741,1906.54 L-229.844,1908.64 L-189.637,1925.77 L-167.451,1944 L-153.552,1979.55 L-144.838,1973.97 L-146.909,1951.46 L-154.654,1945.56 L-159.197,1926.6 L-150.755,1909.65 L-135.677,1906.79 L-112.744,1903.91 L-111.786,1914.16 L-119.671,1924.11 L-116.356,1937.66 L-112.087,1942.56 L-106.689,1944.19 L-100.05,1944.74 L-82.9159,1945.93 L-61.0492,1945.53 L-53.9042,1943.03 L-46.3639,1937.38 L-28.5447,1940.13 L-13.6199,1940.98 L12.0995,1940.41 L-8.35729,1925.94 L-19.8073,1920.22 L-35.9427,1894.16 L-37.3364,1858.24 L-35.7252,1848.3 L-31.0585,1827.84 L-25.758,1787.4 L-32.9617,1789.28 L-35.8004,1776.74 L-37.503,1756.78 L-33.3728,1706.5 L-49.5044,1673.17 L-55.1952,1663.07 L-64.3271,1647.31 L-73.7304,1638.98 L-80.2901,1637.62 L-85.6772,1587.41 L-81.6383,1554.24 L-80.913,1541.89 L-83.5295,1527.56 L-92.227,1520.33 L-97.5731,1518.65 L-105.524,1514.28 L-103.28,1496.46 L-97.9058,1494.96 L-78.2687,1501.69 L-45.7666,1517.93 L-33.3865,1526.73 L-21.9633,1529.95 L2.16776,1530.98 L9.38363,1528.76 L16.6881,1521.14 L34.1211,1514.36 L43.0892,1514.33 L56.8688,1517.8 L65.5511,1521.04 L71.5905,1525.64 L77.3745,1537.5 L78.765,1552.52 L70.2791,1560.13 L59.386,1567.72 L57.2861,1576.38 L59.7718,1587.93 L66.725,1602.61 L70.3066,1609.71 L88.9949,1638.76 L102.454,1654.76 L110.995,1647.19 L137.951,1646.39 L151.579,1648.31 L158.415,1655.4 L167.769,1660.54 L176.131,1663.2 L202.472,1669.05 L229.425,1673.57 L240.273,1674.19 L260.595,1675.2 L282.885,1678.55 L295.444,1685.84 L314.171,1696.37 L331.012,1704.85 L365.408,1700.3 L372.205,1698.53 L381.311,1695.38 L391.986,1690.36 L411.138,1680.76 L417.115,1674.62 L423.211,1666.97 L430.599,1661.53 L438.348,1658.67 L455.87,1654.4 L465.096,1653.68 L471.654,1653.57 L493.162,1650.97 L505.965,1647.29 L517.063,1640.98 L523.294,1634.29 L510.75,1639.5 L494.339,1644.66 L487.42,1645.29 L477.518,1645.15 L461.988,1642.67 L437.339,1636.59 L425.32,1628.31 L416.365,1613.79 L444.658,1548.47 L449.229,1542.64 L456.103,1537.05 L470.951,1531.95 L482.686,1528.01 L513.729,1512.14 L550.312,1491.47 L556.315,1488.54 L570.708,1483.91 L583.516,1481.25 L589.843,1481.06 L683.548,1464.89 L720.579,1447.9 L726.3,1444.62 L763.884,1412.35 L771.649,1407.4 L781.577,1398.97 L787.718,1389.83 L800.394,1359.05 L809.194,1323.81 L815.381,1296.05 L825.15,1292.25 L828.219,1293.02 L817.407,1279.31 L823.785,1228.82 L822.82,1165.79 L823.211,1157.32 L833.471,1116.15 L841.203,1088.85 L871.274,1062.8 L878.857,1058.82 L885.013,1056.24 L923.623,1044.48 L998.114,1029.56 L1029.74,1023.86 L1036.11,1025.04 L1043.86,1023.4 L1063.57,1016.03 L1069.83,1013.51 L1076.24,1010.32 L1089.45,1048.94 L1088.85,1077.06 L1101.23,1121.45 L1134.15,1146.52 L1155.61,1163.92 L1163.32,1168.22 L1175.09,1153.05 L1179.68,1146.66 L1193.46,1141.95 L1196.69,1142.01 L1201.66,1138.52 L1219.62,1133.64 L1230.31,1136.75 L1236.33,1147.83 L1237.37,1152.02 L1239.94,1159.87 L1250.99,1185.38 L1259.62,1235.41 L1264.08,1241.78 L1282.6,1253.7 L1304.35,1247.9 L1320.65,1244.69 L1345.11,1255.38 L1356.87,1270.63 L1359.55,1277.96 L1360.89,1294.77 L1385.87,1311.62 L1415.39,1317.41 L1439.62,1315.43 L1452.97,1311.19 L1486.11,1340.62 L1493.65,1358.94 L1487.6,1399.21 L1481.21,1450.31 L1481.69,1463.01 L1489.3,1463.13 L1498.78,1470.6 L1505.09,1469.06 L1525.21,1466.57 L1550.12,1474.83 L1554.45,1476.5 L1561.74,1478.81 L1575.33,1475.47 L1618.31,1454.58 L1622.54,1431.46 L1622.58,1420.47 L1640.39,1399.68 L1656.23,1386.72 L1672.12,1400.04 L1663.81,1415.61 L1660.14,1426.24 L1655.66,1456.95 L1668.51,1533.43 L1679.28,1538.55 L1686.44,1537.46 L1692.1,1533.26 L1700.25,1532.63 L1789.57,1590.72 L1805.72,1604.21 L1809.53,1606.25 L1816.32,1611.73 L1827.8,1638.71 L1827.4,1649.57 L1840.4,1648.93 L1858.82,1642.05 L1868.85,1638.09 L1887.17,1634.86 L1910.68,1633.31 L1914.78,1633.55 L1915.61,1636.51 L1923.06,1645.79 L1927.52,1650.95 L1960.5,1671.42 L1990.02,1668.69 L1997.07,1659.52 L2007.39,1647.9 L2026.71,1645.92 L2030.03,1646.67 L2044.84,1658.07 L2051.61,1660.91 L2060.57,1664.6 L2073.89,1657.68 L2088.34,1663.03 L2099.03,1670.21 L2107.87,1677.54 L2122.61,1701.56 L2148.28,1748.23 L2156.41,1771.17 L2160.39,1778.94 L2188.17,1783.09 L2193.67,1772.18 L2190.56,1760.11 L2212.49,1756.08 L2236.52,1768.39 L2256.12,1791.8 L2272.32,1793.77 L2308.85,1796.16 L2327.79,1779.21 L2328.83,1772.4 L2331.29,1770.86 L2343.58,1768.71 L2359.95,1772.97 L2398.81,1810.29 L2405.54,1818.96 L2410.02,1819.85 L2428.12,1818.81 L2450.19,1816.35 L2480.37,1813.91 L2510.16,1828.83 L2539.78,1840.13 L2558.66,1843.98 L2551.51,1847.97 L2536.71,1873.76 L2533.09,1885.29 L2530.8,1894.01 L2529.63,1903.79 L2526.53,1910.32 L2493.53,1943.91 L2472.91,1969.04 L2453.87,2005.47 L2441.49,2066.74 L2439.72,2079.26 L2441.85,2088.38 L2444.01,2102.49 L2430.25,2127.02 L2409.27,2173.09 L2402.2,2192.3 L2400.28,2204.44 L2401.35,2221.74 L2405.25,2228.37 L2415.46,2240.27 L2416.79,2249.66 L2407.48,2278.12 L2400.91,2294.72 L2393.93,2325.09 L2391.56,2362.58 L2396.34,2375.54 L2406.65,2384.46 L2414.03,2400.34 L2414.15,2406.15 L2411.11,2406.35 L2404.94,2408.8 L2403.17,2414.24 L2396.47,2416.87 L2391.44,2421.03 L2392.19,2440.87 L2390.84,2443.16 L2379.23,2453.71 L2374.02,2457.72 L2369.5,2464.06 L2361.48,2469.19 L2354.02,2469.38 L2353.42,2469.24 L2349.08,2467.4 L2340.36,2467.24 L2331.54,2470.72 L2324.12,2475.37 L2306.11,2467.07 L2295.33,2445.33 L2262.13,2442.92 L2252.91,2447.61 L2225.07,2502.31 L2238.72,2503.77 L2252.18,2502.18 L2257.59,2500.65 L2250.66,2530.29 L2215.98,2579.94 L2219.02,2582.46 L2204.01,2596.71 L2179.09,2624.45 L2173.66,2636.58 L2161.48,2650.7 L2143.54,2659.29 L2133.16,2662.95 L2115.29,2693.98 L2112.25,2716.77 L2113.89,2728 L-189.359,2728" vector-effect="none"/>
   <path fill-rule="evenodd" d="" vector-effect="none"/>
   <path fill-rule="evenodd" d="" vector-effect="none"/>
   <path fill-rule="evenodd" d="" vector-effect="none"/>
   <path fill-rule="evenodd" d="" vector-effect="none"/>
   <path fill-rule="evenodd" d="" vector-effect="none"/>
   <path fill-rule="evenodd" d="M2328.83,1772.4 L2327.79,1779.21 L2308.85,1796.16 L2272.32,1793.77 L2256.12,1791.8 L2236.52,1768.39 L2212.49,1756.08 L2190.56,1760.11 L2193.67,1772.18 L2188.17,1783.09 L2160.39,1778.94 L2156.41,1771.17 L2148.28,1748.23 L2122.61,1701.56 L2107.87,1677.54 L2099.03,1670.21 L2088.34,1663.03 L2073.89,1657.68 L2060.57,1664.6 L2060.41,1652.63 L2058.37,1637.94 L2073.64,1581.27 L2086.8,1569.99 L2095.32,1564.26 L2098.88,1523.53 L2087.91,1522.48 L2074.36,1523.75 L2065.38,1520.43 L2045.71,1508.67 L2044.3,1505.9 L2027.62,1495.46 L2022.64,1489.5 L2006.55,1468.36 L1997.42,1451.38 L1994.64,1443.41 L1989.7,1426.06 L1990.75,1412.58 L1993.28,1401.14 L1994.55,1397.62 L1995.67,1386.9 L2001.94,1358.51 L2030.75,1334.12 L2048.16,1321.94 L2060.52,1317.43 L2052.84,1269.4 L2043.59,1252.06 L2036.9,1248.11 L2024.4,1248.21 L2019.13,1211.61 L2024.61,1199.14 L1997.88,1185.12 L1968.54,1158.79 L1957.3,1145.51 L1955.94,1127.48 L1957.78,1111.59 L1968.26,1107.8 L1974.74,1098.98 L1973.43,1081.87 L1958.66,1056.78 L1938.02,1054.69 L1927.53,1059.4 L1918.9,1041.18 L1917.56,1030.57 L1927.68,1023.22 L1952.18,1014.24 L1975.63,994.841 L1971.93,977.578 L1968.34,961.651 L1969.59,950.652 L1985.57,928.614 L2004.9,900.838 L2003.75,858.989 L1998.97,840.57 L1986.94,822.828 L1980.67,817.952 L1970.22,804.127 L1953.12,763.974 L1933.58,747.972 L1941.07,739.895 L1935.96,724.145 L1945.58,714.555 L1975.04,690.536 L1989.55,687.285 L2032.05,705.186 L2059.77,702.191 L2075.63,693.357 L2092.09,684.156 L2114.25,677.223 L2123.83,682.453 L2129.67,678.971 L2138.54,671.197 L2149.26,650.316 L2141.02,637.318 L2123.6,627.211 L2124.99,610.518 L2130.21,595.104 L2154.03,591.939 L2158.44,582.993 L2164.85,570.76 L2179.93,562.974 L2198.47,545.663 L2201.07,543.116 L2194.56,527.056 L2195.65,515.924 L2200.85,502.937 L2203.61,495.516 L2201.27,481.464 L2180.92,455.476 L2173.88,463.826 L2125.59,455.888 L2111.78,445.373 L2107.45,420.417 L2115.4,416.59 L2124.06,414.218 L2115.94,392.765 L2113.67,389.545 L2114.1,388.463 L2124.81,379.373 L2159.19,379.46 L2190.59,384.369 L2195.17,377.607 L2196.6,348.655 L2196.37,332.952 L2196.21,320.044 L2197.53,309.038 L2201.6,301.97 L2211.04,280.695 L2221.7,262.065 L2225.26,250.523 L2228.14,231.736 L2224.66,164.532 L2223.91,137.7 L2234.21,107.808 L2250.82,106.79 L2257.25,110.435 L2253.67,104.215 L2226.94,99.8925 L2216.51,98.5029 L2202.68,99.3571 L2192.26,100.917 L2184.26,99.5852 L2176.31,86.0817 L2174.86,72.2319 L2176.06,59.0429 L2177.99,42.9186 L2191.1,-0.190297 L2212.11,-22.743 L2223.04,-33.2336 L2237.99,-41.0919 L2248.75,-42.8631 L2279.27,-43.0485 L2290.19,-37.9106 L2306.31,-42.3543 L2333.83,-51.1781 L2368.18,-58.3532 L2377.46,-60.1344 L2383.39,-61.2004 L2393.37,-60.8949 L2401.16,-60.3749 L2409.09,-57.9652 L2412,-50.5625 L2419.64,-27.4676 L2437.75,-9.56301 L2447.22,0.451547 L2449.12,12.3642 L2440.61,20.5244 L2432.19,23.6355 L2424.72,24.8759 L2427.91,37.9011 L2434.34,47.1498 L2462.2,62.4112 L2468.06,63.114 L2470.87,62.463 L2480.02,54.2864 L2485.47,39.7205 L2486.35,19.8258 L2482.36,12.2551 L2473.64,14.5626 L2465.31,13.8513 L2465.36,-0.122276 L2466.23,-11.5876 L2472.12,-20.5195 L2480.66,-24.7799 L2486.93,-24.4421 L2527.06,-2.32453 L2532.6,15.6756 L2528.65,24.0999 L2526.64,35.1586 L2527.92,55.1908 L2529.9,69.1334 L2533.64,74.9718 L2532.49,47.8804 L2529.96,37.2147 L2531.05,26.4039 L2543.86,12.6836 L2544.66,7.14546 L2529.8,-27.5678 L2524.1,-40.0189 L2521.65,-54.9783 L2533.93,-108.905 L2540.06,-124.042 L2545.98,-134.07 L2558.6,-140.287 L2564.08,-141.11 L2571.61,-132.051 L2582.81,-123.159 L2587.52,-120.972 L2592.78,-119.381 L2606.2,-117.722 L2619.19,-117.838 L2645.61,-126.986 L2665.31,-134.958 L2670.85,-136.433 L2691.57,-137.272 L2707.83,-134.587 L2717.82,-124.211 L2725.54,-112.562 L2733.22,-98.0561 L2741.97,-85.1979 L2779.41,-38.1165 L2785.33,-32.1425 L2808.94,-20.4752 L2814.61,-18.7537 L2831.28,-17.3175 L2842.24,-14.0881 L2846.72,-17.6277 L2834.16,-24.9337 L2825,-25.4471 L2820.94,-25.375 L2814.95,-26.0641 L2808.38,-28.3947 L2783.99,-42.1391 L2778.49,-47.4145 L2746.71,-92.1908 L2741.93,-102.798 L2739.11,-111.126 L2734.94,-123.12 L2719.58,-135.146 L2707.05,-142.609 L2695.39,-146.21 L2690.22,-147.218 L2654.4,-148.276 L2635.83,-144.616 L2626.74,-150.246 L2621.68,-154.978 L2616.4,-160.706 L2610.12,-170.972 L2601.12,-189.708 L2599.14,-200.025 L2608.7,-204.627 L2618.58,-202.203 L2625.09,-198.233 L2630.49,-195.262 L2636.62,-199.231 L2638.52,-207.365 L2638.81,-222.744 L2626.74,-240.826 L2598.79,-237.627 L2592.31,-246.795 L2591.78,-248 L3055.4,-248 L3051.94,-242.021 L3051.51,-233.617 L3057.18,-222.315 L3061.93,-218.235 L3068.29,-218.226 L3077.56,-218.926 L3082.19,-216.103 L3085.75,-203.639 L3080.79,-188.097 L3071.05,-176.376 L3088.64,-194.516 L3089.03,-205.158 L3102.47,-215.621 L3113.36,-222.663 L3122.93,-228.409 L3132,-231.76 L3153.04,-233.009 L3171.86,-205.157 L3210.71,-201.099 L3225.25,-218.9 L3226.75,-232.925 L3231.81,-248 L3234.94,-248 L3237.79,-246.861 L3240.13,-247.314 L3241.11,-248 L3782.47,-248 L3781.94,-247.266 L3780.07,-238.256 L3819.78,-210.975 L3858.8,-198.455 L3858.8,1069.79 L3858.39,1070.4 L3851.42,1069.8 L3845.59,1068.04 L3835.44,1061.97 L3804.71,1081.99 L3799.82,1097.85 L3796.95,1110.74 L3792.98,1118.36 L3765.78,1123.49 L3752.19,1148.86 L3747.09,1156.81 L3745.59,1158.11 L3735.57,1162.65 L3728.33,1161.57 L3723.03,1157.92 L3711.42,1152.4 L3703.1,1148.97 L3689.98,1153.73 L3682.48,1160.03 L3665.75,1169.83 L3652.89,1171.27 L3626.81,1182.02 L3620.18,1190.61 L3600.6,1218.57 L3585.05,1249.77 L3585.68,1261.6 L3574.42,1258.04 L3545.12,1222.32 L3522.03,1221.54 L3529.88,1226.4 L3558.3,1281.92 L3555.51,1293.25 L3559.95,1304.94 L3576.93,1319.34 L3588.51,1325.62 L3622.21,1343.63 L3633.29,1345.68 L3638.95,1349.1 L3655.94,1374.01 L3641.47,1426.57 L3641.96,1462.05 L3647.5,1463.36 L3658.3,1467.67 L3671.14,1490.73 L3679.83,1512.45 L3686.27,1525.09 L3710.8,1563.79 L3746.65,1594.16 L3770.09,1591.26 L3789.08,1591.27 L3810.08,1607.89 L3852.86,1651.61 L3858.8,1654.77 L3858.8,2016.66 L3854.63,2018.74 L3818.16,2045.84 L3792.07,2081.67 L3795.61,2097.25 L3805.68,2107.28 L3817.07,2115.93 L3823.13,2122.54 L3826.15,2129.21 L3842.2,2142.26 L3857.38,2161.07 L3858.8,2163.1 L3858.8,2205.86 L3856.81,2208.97 L3851.63,2235.38 L3858.8,2235.97 L3858.8,2323.48 L3830.47,2306.72 L3824.17,2295.78 L3827.54,2282.72 L3833.16,2279.49 L3805.83,2257.73 L3786.54,2258.98 L3770.26,2265.94 L3764.22,2277.99 L3761.69,2279.17 L3747.97,2284.2 L3730.4,2272.16 L3662.28,2283.65 L3664.98,2293.12 L3664.28,2301.43 L3648.09,2303.9 L3639.75,2303.32 L3625.69,2302.42 L3611.03,2302.37 L3588.09,2308.88 L3525.16,2327.1 L3499.58,2354.1 L3493.02,2358.19 L3479.94,2362.04 L3466.86,2362.06 L3426.29,2399.56 L3375.2,2417.35 L3354.73,2419.7 L3349.2,2419.98 L3340.43,2418.97 L3317.98,2373.41 L3257.42,2364.21 L3224.96,2372.44 L3199.65,2355.89 L3186.8,2359.38 L3189.22,2379.89 L3198.83,2397.76 L3202.38,2415.73 L3191.77,2433.36 L3169.14,2468.85 L3152.93,2479.76 L3140.91,2485.9 L3125.79,2487.62 L3134.74,2467.64 L3138.59,2446.66 L3083.47,2401.94 L3058.2,2385.93 L3017.49,2367.01 L3007.93,2368.89 L3000.75,2379.65 L2997.82,2389.83 L2987.22,2395.27 L2976.07,2396.07 L2964.46,2396.89 L2955.86,2394.31 L2952.73,2393.31 L2927.74,2380.78 L2866.47,2349.86 L2817.52,2343.93 L2804.09,2343.61 L2795.47,2347.17 L2789.94,2351.82 L2781.67,2357.43 L2775.9,2360.08 L2768.58,2360.92 L2764.27,2359.84 L2755.73,2342.34 L2749.7,2334.99 L2741.2,2328.25 L2733.26,2336.81 L2741.06,2350.14 L2728.09,2346.12 L2719.05,2345.44 L2722.03,2340.56 L2722.02,2320.92 L2707.55,2309.85 L2700.75,2305.66 L2687.17,2304.09 L2673.92,2303.72 L2651.51,2319.49 L2634.03,2348.16 L2637.92,2359.19 L2656.52,2368.96 L2666.36,2366.57 L2671.09,2361.21 L2681.84,2358.87 L2689.91,2358.76 L2694.16,2363.16 L2686.78,2386 L2682.47,2389.94 L2680.41,2387.17 L2678.19,2379.3 L2667.16,2374.16 L2653.56,2385.12 L2644.68,2399.2 L2632.32,2397.3 L2604.06,2387.1 L2590.74,2383.63 L2578.48,2383.91 L2553.98,2404.99 L2535.66,2411.93 L2504.26,2414.21 L2464.04,2416.46 L2444.5,2421.37 L2433.19,2418.97 L2423.49,2415.15 L2436.19,2408.58 L2437.54,2396.86 L2428.02,2397.73 L2414.15,2406.15 L2414.03,2400.34 L2406.65,2384.46 L2396.34,2375.54 L2391.56,2362.58 L2393.93,2325.09 L2400.91,2294.72 L2407.48,2278.12 L2416.79,2249.66 L2415.46,2240.27 L2405.25,2228.37 L2401.35,2221.74 L2400.28,2204.44 L2402.2,2192.3 L2409.27,2173.09 L2430.25,2127.02 L2444.01,2102.49 L2441.85,2088.38 L2439.72,2079.26 L2441.49,2066.74 L2453.87,2005.47 L2472.91,1969.04 L2493.53,1943.91 L2526.53,1910.32 L2529.63,1903.79 L2530.8,1894.01 L2533.09,1885.29 L2536.71,1873.76 L2551.51,1847.97 L2558.66,1843.98 L2539.78,1840.13 L2510.16,1828.83 L2480.37,1813.91 L2450.19,1816.35 L2428.12,1818.81 L2410.02,1819.85 L2405.54,1818.96 L2398.81,1810.29 L2359.95,1772.97 L2343.58,1768.71 L2331.29,1770.86 L2328.83,1772.4" vector-effect="none"/>
   <path fill-rule="evenodd" d="" vector-effect="none"/>
   <path fill-rule="evenodd" d="M3830.53,-248 L3825.5,-242.911 L3813.86,-238.068 L3798.95,-234.73 L3784.71,-240.765 L3792.31,-248 L3830.53,-248" vector-effect="none"/>
   <path fill-rule="evenodd" d="" vector-effect="none"/>
   <path fill-rule="evenodd" d="" vector-effect="none"/>
   <path fill-rule="evenodd" d="M2707.84,2347.41 L2706.36,2343.67 L2714.71,2339.89 L2716.34,2345.52 L2707.84,2347.41" vector-effect="none"/>
   <path fill-rule="evenodd" d="" vector-effect="none"/>
   <path fill-rule="evenodd" d="M2941.07,2588.84 L2949.89,2568.67 L2946.11,2552.47 L2941.29,2542.39 L2940.07,2532.95 L2942.54,2521.86 L2951.16,2500.62 L2960.98,2512.29 L2979.04,2548.65 L2982.66,2556.46 L2983.53,2569.86 L2977.05,2582.06 L2974.89,2583.91 L2959.02,2582.54 L2949.57,2585.32 L2943.89,2587.18 L2941.07,2588.84" vector-effect="none"/>
   <path fill-rule="evenodd" d="M2058.37,1637.94 L2060.41,1652.63 L2060.57,1664.6 L2051.61,1660.91 L2044.84,1658.07 L2030.03,1646.67 L2026.71,1645.92 L2007.39,1647.9 L1997.07,1659.52 L1990.02,1668.69 L1960.5,1671.42 L1927.52,1650.95 L1923.06,1645.79 L1915.61,1636.51 L1914.78,1633.55 L1922.08,1631.52 L1928.98,1622.57 L1938.14,1594.7 L1937.66,1585.78 L1931.28,1566.98 L1929.45,1563.06 L1908.36,1538.92 L1898.49,1534.5 L1893.44,1517.43 L1896.36,1488.25 L1903.98,1468.21 L1918.21,1455.91 L1930.06,1419.39 L1931.1,1411.25 L1952.52,1381.63 L1963.99,1376.64 L1966.15,1376.81 L1967.42,1384.1 L1990.79,1396.06 L1994.55,1397.62 L1993.28,1401.14 L1990.75,1412.58 L1989.7,1426.06 L1994.64,1443.41 L1997.42,1451.38 L2006.55,1468.36 L2022.64,1489.5 L2027.62,1495.46 L2044.3,1505.9 L2045.71,1508.67 L2065.38,1520.43 L2074.36,1523.75 L2087.91,1522.48 L2098.88,1523.53 L2095.32,1564.26 L2086.8,1569.99 L2073.64,1581.27 L2058.37,1637.94" vector-effect="none"/>
   <path fill-rule="evenodd" d="M1498.19,815.673 L1496.65,809.334 L1492.87,804.581 L1486.29,805.442 L1480.62,805.146 L1474.32,797.869 L1472.9,790.881 L1469.09,795.142 L1462.92,799.39 L1449.87,803.74 L1439.72,805.365 L1421.7,797.277 L1386.92,780.725 L1374.6,780.749 L1369.89,776.502 L1368.81,766.442 L1375.69,756.929 L1391.86,752.067 L1399.76,752.797 L1402.84,753.799 L1417.09,753.253 L1437.54,757.538 L1447.59,767.05 L1463.14,779.402 L1472.42,786.473 L1476.26,781.378 L1485.36,777.694 L1488.34,777.025 L1478.24,768.515 L1461.08,749.136 L1451.85,734.078 L1443.37,730.016 L1435.65,730.14 L1415.26,736.165 L1413.79,725.792 L1444.78,712.046 L1452.09,715.04 L1461.99,706.707 L1451.49,658.909 L1459.88,656.392 L1469.29,656.988 L1476.4,655.562 L1482.72,650.948 L1537.73,580.561 L1547.37,566.15 L1552.38,557.659 L1556.55,549.167 L1569.54,519.103 L1575.25,505.575 L1580.89,491.432 L1583.39,481.877 L1589.07,467.885 L1609.61,468.358 L1621.67,478.722 L1655.74,485.383 L1665.81,493.288 L1671,499.772 L1682.21,500.103 L1691.98,504.856 L1725.34,516.944 L1754.34,524.026 L1766.89,528.956 L1775.75,538.256 L1777.56,538.343 L1785.97,540.827 L1794.89,547.604 L1798.61,548.725 L1824.73,541.632 L1829.54,536.305 L1833.72,525.571 L1837.32,517.467 L1848.37,505.219 L1858.96,498.557 L1864.94,494.937 L1873.92,490.543 L1883.29,485.161 L1893.75,474.955 L1902.69,460.865 L1908.89,442.082 L1907.4,436.49 L1900.99,414.752 L1902.45,403.001 L1878.93,403.556 L1857.6,403.498 L1839.82,383.519 L1838.28,347.31 L1843.55,334.678 L1854.65,316.802 L1867.31,310.693 L1866.34,309.805 L1850.2,303.999 L1834.7,310.532 L1792.59,305.571 L1782.42,295.068 L1790.81,282.433 L1793.86,264.033 L1791.01,233.894 L1781.16,218.548 L1773.75,220.602 L1763.43,226.994 L1755.45,233.017 L1739.93,249.275 L1716.32,268.54 L1714.47,293.594 L1723.11,318.987 L1740.54,345.675 L1747.14,345.154 L1762.16,349.765 L1766.86,365.812 L1755.22,371.292 L1750.66,385.227 L1741.14,393.103 L1734.11,396.755 L1727.16,398.84 L1718.41,391.162 L1705.39,391.957 L1700.34,399.015 L1704.31,421.129 L1709.96,432.194 L1715.48,444.429 L1715.9,475.595 L1712.97,482.549 L1705.22,488.041 L1699.79,498.924 L1672.92,494.506 L1663.17,483.16 L1650.91,479.18 L1623.2,473.171 L1612.17,463.216 L1590.93,458.787 L1594.89,443.973 L1600.63,410.662 L1603.46,391.938 L1603.85,376.91 L1608.22,348.289 L1628.47,265.729 L1639.3,262.318 L1644.75,268.351 L1645.51,277.873 L1651.04,284.32 L1659.89,288.902 L1666.85,289.468 L1676.97,286.71 L1714.86,264.084 L1735.52,246.211 L1736.46,245.203 L1746.1,234.245 L1752.39,227.464 L1764.63,217.812 L1770.78,215.053 L1781.03,211.452 L1785.25,207.257 L1788.79,197.931 L1790.76,190.302 L1791.69,178.186 L1797.94,161.358 L1802.64,154.637 L1830.57,128.878 L1835.19,125.223 L1904.83,90.946 L1926.54,83.7761 L1953.08,78.3721 L1973.59,76.7089 L1975.86,77.1834 L1977.67,78.1188 L2002.33,80.739 L2039.47,70.3375 L2097.89,53.8378 L2103.52,52.5386 L2108.51,51.9342 L2117.13,54.3419 L2139.27,66.4046 L2148.44,97.1519 L2158.65,107.763 L2195.7,133.261 L2222.04,138.736 L2223.91,137.7 L2224.66,164.532 L2228.14,231.736 L2225.26,250.523 L2221.7,262.065 L2211.04,280.695 L2201.6,301.97 L2197.53,309.038 L2196.21,320.044 L2196.37,332.952 L2196.6,348.655 L2195.17,377.607 L2190.59,384.369 L2159.19,379.46 L2124.81,379.373 L2114.1,388.463 L2113.67,389.545 L2115.94,392.765 L2124.06,414.218 L2115.4,416.59 L2107.45,420.417 L2111.78,445.373 L2125.59,455.888 L2173.88,463.826 L2180.92,455.476 L2201.27,481.464 L2203.61,495.516 L2200.85,502.937 L2195.65,515.924 L2194.56,527.056 L2201.07,543.116 L2198.47,545.663 L2179.93,562.974 L2164.85,570.76 L2158.44,582.993 L2154.03,591.939 L2130.21,595.104 L2124.99,610.518 L2123.6,627.211 L2141.02,637.318 L2149.26,650.316 L2138.54,671.197 L2129.67,678.971 L2123.83,682.453 L2114.25,677.223 L2092.09,684.156 L2075.63,693.357 L2059.77,702.191 L2032.05,705.186 L1989.55,687.285 L1975.04,690.536 L1945.58,714.555 L1935.96,724.145 L1941.07,739.895 L1933.58,747.972 L1953.12,763.974 L1970.22,804.127 L1980.67,817.952 L1986.94,822.828 L1998.97,840.57 L2003.75,858.989 L2004.9,900.838 L1985.57,928.614 L1969.59,950.652 L1968.34,961.651 L1971.93,977.578 L1975.63,994.841 L1952.18,1014.24 L1927.68,1023.22 L1917.56,1030.57 L1918.9,1041.18 L1927.53,1059.4 L1938.02,1054.69 L1958.66,1056.78 L1973.43,1081.87 L1974.74,1098.98 L1968.26,1107.8 L1957.78,1111.59 L1955.94,1127.48 L1957.3,1145.51 L1935.54,1146.45 L1928.56,1147.49 L1921.28,1144.85 L1902.59,1141.76 L1887.98,1145.88 L1877.49,1146.91 L1875.76,1145.82 L1878.74,1137.15 L1877.99,1127.59 L1875.93,1126.43 L1873.28,1125.44 L1865.56,1120.66 L1861.62,1110.57 L1864.64,1099.97 L1891.11,1065.39 L1892.44,1053.31 L1895.4,1038.85 L1905.12,1002.82 L1912.17,987.334 L1888.4,973 L1860.67,968.027 L1841.28,961.475 L1837.08,941.873 L1825.69,932.171 L1817.14,935.258 L1799.65,943.886 L1780.85,945.674 L1757.97,945.929 L1756.33,927.023 L1746.25,923.064 L1738.22,924.91 L1733.27,923.12 L1717.63,890.509 L1722.56,877.009 L1716.29,863.168 L1706.61,856.168 L1701.31,862.774 L1696.39,876.606 L1682.28,890.369 L1660.27,885.667 L1655.14,879.451 L1658.21,861.232 L1653.24,854.453 L1646.14,850.866 L1638.26,851.441 L1622.24,864.777 L1614.53,878.63 L1608.64,882.417 L1581.67,879.291 L1581.66,869.912 L1582.62,858.44 L1567.56,859.641 L1545.33,871.162 L1546.17,886.289 L1550.89,892.537 L1554.84,903.867 L1549.67,908.559 L1543.42,908.951 L1534.58,907.446 L1516.16,901.264 L1509.29,901.837 L1496.77,889.815 L1460.01,881.326 L1427.56,879.542 L1421.52,892.511 L1402.18,895.449 L1338.72,872.94 L1330.09,868.101 L1306.8,838.435 L1310.2,830.632 L1317.32,824.911 L1325.35,819.424 L1338.91,811.757 L1369.14,810.593 L1404.98,808.328 L1413.93,810.96 L1420.97,823.762 L1412.39,832.499 L1406.96,829.5 L1401.19,831.414 L1412.51,835.715 L1417.66,833.986 L1428.54,832.126 L1447.78,841.3 L1458.13,847.824 L1463.19,854.209 L1466.57,863.935 L1471.94,872.664 L1477.47,876.365 L1483.37,877.444 L1507.91,877.027 L1512.32,874.18 L1517.18,872.546 L1519.3,863.897 L1517.48,856.359 L1512.5,847.867 L1503.68,844.165 L1498.65,845.329 L1466.87,839.151 L1445.7,815.221 L1456.77,809.189 L1463.97,806.762 L1488.75,809.189 L1494.58,811.437 L1498.19,815.673" vector-effect="none"/>
   <path fill-rule="evenodd" d="M1844.55,499.473 L1834.3,501.067 L1828.35,508.954 L1831.92,518.058 L1824.91,534.563 L1798.46,542.639 L1793.18,540.59 L1783.89,532.114 L1775.61,524.85 L1769.4,521.469 L1762.72,518.312 L1755.3,515.72 L1743.88,512.948 L1736.62,514.536 L1730.71,511.75 L1727.52,496.312 L1736.79,488.915 L1743.71,482.787 L1766.47,467.66 L1787.31,454.202 L1794.91,450.526 L1804.2,443.895 L1805,438.613 L1810.52,427.952 L1833.62,411.723 L1850.74,406.299 L1897.73,419.847 L1904.46,433.536 L1902.56,451.036 L1897.74,460.851 L1888.36,475.923 L1880.41,481.073 L1871.03,481.581 L1864.44,483.712 L1849.3,493.584 L1844.55,499.473" vector-effect="none"/>
   <path fill-rule="evenodd" d="M1287.56,900.693 L1296.63,896.112 L1327.48,885.991 L1332.85,886.831 L1355.22,898.342 L1378.91,910.978 L1386.39,913.245 L1411.65,915.723 L1436.09,903.759 L1499.23,903.664 L1505.88,911.766 L1501.53,917.79 L1487.79,933.052 L1477.82,940.447 L1461.26,951.102 L1433.5,966.15 L1419.07,969.581 L1393.5,959.52 L1392.32,946.422 L1362.29,934.136 L1344.91,929.386 L1325.1,937.571 L1325.3,947.342 L1313.05,953.756 L1304.27,952.785 L1291.4,943.018 L1289.37,940.34 L1287.91,926.364 L1287.56,900.693" vector-effect="none"/>
   <path fill-rule="evenodd" d="M1719.9,453.353 L1718.6,448.187 L1710.89,429.908 L1704.75,420.976 L1701.36,402.279 L1705.02,393.863 L1719.21,394.43 L1725.23,400.643 L1731.04,400.946 L1742.23,394.935 L1749.92,389.322 L1755.82,378.132 L1765.98,371.466 L1773.52,374.609 L1785.9,380.704 L1796.6,392.958 L1803.99,402.907 L1811.72,418.324 L1807.14,423.445 L1803.15,432.334 L1802.25,443.422 L1796.1,448.474 L1786.26,452.576 L1768.42,465.23 L1737.65,486.135 L1732.67,491.677 L1726.86,495.67 L1707.36,491.337 L1714.22,482.884 L1716.64,474.471 L1717.79,474.902 L1727.36,464.195 L1719.9,453.353" vector-effect="none"/>
   <path fill-rule="evenodd" d="M1738.88,106.772 L1735.53,106.699 L1731.33,102.97 L1731.4,96.2885 L1733.79,94.0837 L1742.89,88.8379 L1745.28,87.6924 L1819.92,65.4242 L1823.97,64.3523 L1829.37,65.6642 L1828.05,70.8579 L1825.18,73.0558 L1775.5,93.5789 L1765.45,97.5083 L1741.88,106.514 L1738.88,106.772" vector-effect="none"/>
   <path fill-rule="evenodd" d="M1631.99,252.857 L1628.35,252.43 L1624.83,250.156 L1622.79,246.757 L1620.94,240.058 L1620.67,232.181 L1622.22,225.747 L1624.09,221.713 L1629.3,213.642 L1656.46,174.247 L1659.44,172.327 L1663,174.26 L1670.05,190.923 L1669.79,209.981 L1668.07,214.187 L1661.68,225.185 L1657.35,232.367 L1644.36,245.412 L1640.2,248.678 L1634.69,252.174 L1631.99,252.857" vector-effect="none"/>
   <path fill-rule="evenodd" d="M2112.25,2716.77 L2115.29,2693.98 L2133.16,2662.95 L2143.54,2659.29 L2161.48,2650.7 L2173.66,2636.58 L2179.09,2624.45 L2204.01,2596.71 L2219.02,2582.46 L2215.98,2579.94 L2250.66,2530.29 L2257.59,2500.65 L2252.18,2502.18 L2238.72,2503.77 L2225.07,2502.31 L2252.91,2447.61 L2262.13,2442.92 L2295.33,2445.33 L2306.11,2467.07 L2324.12,2475.37 L2331.54,2470.72 L2340.36,2467.24 L2349.08,2467.4 L2353.42,2469.24 L2354.02,2469.38 L2361.48,2469.19 L2369.5,2464.06 L2374.02,2457.72 L2379.23,2453.71 L2390.84,2443.16 L2392.19,2440.87 L2391.44,2421.03 L2396.47,2416.87 L2403.17,2414.24 L2404.94,2408.8 L2411.11,2406.35 L2414.15,2406.15 L2428.02,2397.73 L2437.54,2396.86 L2436.19,2408.58 L2423.49,2415.15 L2433.19,2418.97 L2444.5,2421.37 L2464.04,2416.46 L2504.26,2414.21 L2535.66,2411.93 L2553.98,2404.99 L2578.48,2383.91 L2590.74,2383.63 L2604.06,2387.1 L2632.32,2397.3 L2644.68,2399.2 L2653.56,2385.12 L2667.16,2374.16 L2678.19,2379.3 L2680.41,2387.17 L2682.47,2389.94 L2686.78,2386 L2694.16,2363.16 L2689.91,2358.76 L2681.84,2358.87 L2671.09,2361.21 L2666.36,2366.57 L2656.52,2368.96 L2637.92,2359.19 L2634.03,2348.16 L2651.51,2319.49 L2673.92,2303.72 L2687.17,2304.09 L2700.75,2305.66 L2707.55,2309.85 L2722.02,2320.92 L2722.03,2340.56 L2719.05,2345.44 L2728.09,2346.12 L2741.06,2350.14 L2733.26,2336.81 L2741.2,2328.25 L2749.7,2334.99 L2755.73,2342.34 L2764.27,2359.84 L2768.58,2360.92 L2775.9,2360.08 L2781.67,2357.43 L2789.94,2351.82 L2795.47,2347.17 L2804.09,2343.61 L2817.52,2343.93 L2866.47,2349.86 L2927.74,2380.78 L2952.73,2393.31 L2951.93,2408.83 L2962.86,2421.22 L2977.6,2424.55 L2985.17,2451.39 L2976.79,2460.5 L2969.81,2463.96 L2952.65,2496.63 L2951.16,2500.62 L2942.54,2521.86 L2940.07,2532.95 L2941.29,2542.39 L2946.11,2552.47 L2949.89,2568.67 L2941.07,2588.84 L2943.89,2587.18 L2949.57,2585.32 L2959.02,2582.54 L2974.89,2583.91 L2984.38,2586.13 L3008.41,2586.99 L3051.3,2594.83 L3057.1,2603.56 L3053.74,2616.78 L3055.1,2627.88 L3071.65,2637.79 L3107.14,2653.81 L3121.55,2659.2 L3127.62,2658.68 L3130.42,2658.08 L3135.54,2656.21 L3153.19,2645.97 L3174.97,2621.36 L3177.01,2612.34 L3183.35,2597.43 L3193.99,2591.99 L3205.36,2598.49 L3222.92,2616.49 L3220.4,2642.79 L3217.43,2686.76 L3226.12,2728 L2113.89,2728 L2112.25,2716.77 M2716.34,2345.52 L2714.71,2339.89 L2706.36,2343.67 L2707.84,2347.41 L2716.34,2345.52" vector-effect="none"/>
   <path fill-rule="evenodd" d="M752.882,995.335 L745.144,995.344 L742.246,995.67 L711.38,1004.84 L707.919,1006.7 L697.106,1013.92 L693.014,1017.2 L684.462,1025.59 L681.292,1030.19 L679.269,1034.35 L677.048,1040.5 L676.004,1045.59 L676.073,1054.87 L677.096,1060.28 L646.959,1061.45 L636.349,1057.37 L631.097,1056.45 L628.057,1056.52 L610.969,1067.98 L608.148,1070.75 L600.891,1078.83 L596.511,1081.57 L571.941,1089.05 L554.308,1092.04 L542.574,1093.11 L536.938,1093.92 L529.101,1096.19 L521.656,1099.03 L515.768,1101.84 L504.418,1112.52 L501.503,1115.26 L498.917,1118.47 L495.27,1124.81 L492.456,1127.62 L489.919,1128.59 L486.936,1128.65 L483.29,1127.89 L480.158,1126.82 L457.162,1118.37 L450.993,1114.66 L440.768,1108.81 L402.981,1094.72 L392.095,1090.82 L387.37,1089.3 L378.87,1087 L375.01,1086.42 L362.585,1085.76 L279.918,1092.96 L264.384,1095.16 L254.617,1096.96 L245.241,1099.23 L236.192,1101.85 L230.343,1107.93 L229.904,1112.21 L226.025,1116.7 L221.528,1116.77 L195.204,1095.7 L199.679,1089.39 L206.715,1086.17 L205.424,1082.36 L191.963,1069.01 L189.27,1068.34 L150.016,1063.47 L133.517,1064.27 L136.328,1068.39 L143.154,1078.64 L138.725,1087.91 L135.342,1089.75 L88.2312,1080.76 L68.1216,1087.49 L19.6977,1102.46 L14.4399,1099.8 L1.02584,1095.42 L-3.12383,1094.68 L-7.49362,1095.1 L-37.181,1098.25 L-67.465,1099.84 L-86.5229,1097.31 L-90.0566,1094.99 L-92.4283,1090.14 L-101.125,1096.33 L-105.114,1103.13 L-79.2308,1115.97 L-74.2311,1118.38 L-70.3165,1129.17 L-79.1153,1145.64 L-102.448,1148.08 L-118.895,1137.97 L-121.722,1135.26 L-124.354,1133.57 L-137.397,1128.72 L-186.149,1118.06 L-196.607,1119.79 L-200.882,1122.87 L-206.985,1135.31 L-207.329,1139.42 L-205.817,1143.15 L-197.734,1149.95 L-200.882,1157 L-205.918,1153.67 L-206.211,1148.46 L-214.222,1134.04 L-230.283,1117.79 L-253.881,1098.97 L-263.175,1092.59 L-268.153,1089.54 L-280.337,1082.2 L-293.004,1076.26 L-303.056,1072.03 L-307.741,1070.45 L-313.787,1068.96 L-319.086,1069.28 L-323.699,1072.02 L-327.924,1075.87 L-332.902,1077.95 L-350.8,1079.56 L-350.8,877.958 L-325.698,876.872 L-319.788,857.186 L-319.271,850.589 L-316.296,836.974 L-301.845,811.039 L-272.284,785.787 L-250.015,769.998 L-217.901,742.9 L-213.869,737.226 L-189.399,707.905 L-166.654,682.882 L-162.21,680.377 L-155.561,678.859 L-149.22,678.038 L-145.126,675.889 L-142.506,670.044 L-145.19,664.392 L-163.071,674.241 L-195.058,699.077 L-208.837,711.348 L-218.867,722.173 L-221.596,725.167 L-228.285,731.596 L-232.561,734.665 L-267.123,745.794 L-278.598,747.254 L-285.144,746.947 L-294.005,745.286 L-296.838,744.22 L-311.14,749.416 L-337.025,762.076 L-339.628,765.292 L-346.642,775.016 L-349.361,783.829 L-350.8,789.113 L-350.8,22.2931 L-345.022,20.1318 L-326.412,12.7612 L-320.252,12.3933 L-313.884,12.6068 L-309.704,13.1543 L-286.044,35.6033 L-267.188,54.4897 L-261.8,58.1823 L-258.034,53.6122 L-256.243,50.344 L-264.406,26.6804 L-270.182,16.6559 L-272.886,12.8389 L-274.916,10.3278 L-277.297,4.01787 L-277.065,-0.229043 L-274.486,-3.11439 L-272.056,-4.55203 L-248.15,-5.80864 L-244.686,-5.78476 L-241.479,-2.81515 L-238.818,6.23141 L-229.957,13.0584 L-220.952,36.8685 L-217.875,40.5662 L-211.532,46.4479 L-207.551,48.4118 L-202.781,49.8872 L-181.8,47.9943 L-175.777,43.8009 L-162.422,26.3538 L-165.363,25.3152 L-178.325,29.4037 L-180.575,31.8258 L-200.126,34.7591 L-204.966,32.3191 L-221.714,16.684 L-223.812,13.4429 L-232.107,-7.44797 L-233.356,-10.6741 L-249.992,-66.9111 L-246.462,-73.2138 L-240.689,-81.3997 L-214.06,-117.487 L-205.157,-122.367 L-194.403,-128.162 L-195.879,-131.288 L-199.889,-132.525 L-203.442,-132.986 L-209.821,-133.167 L-216.19,-133.463 L-219.335,-134.674 L-222.776,-136.928 L-226.048,-141.19 L-229.055,-148.743 L-229.802,-155.901 L-229.492,-160.983 L-223.386,-204.949 L-220.771,-209.183 L-216.106,-211.698 L-193.259,-219.324 L-182.951,-237.871 L-177.339,-248 L459.557,-248 L469.946,-243.526 L477.921,-239.341 L486.356,-231.238 L478.148,-225.649 L471.859,-224.629 L466.407,-222.215 L463.229,-219.832 L454.962,-208.176 L452.355,-200.153 L451.815,-195.143 L452.345,-190.906 L460.331,-154.152 L468.889,-131.607 L472.063,-126.037 L474.97,-121.491 L484.922,-106.102 L493.821,-91.678 L510.337,-64.6057 L524.195,-40.167 L527.298,-32.7104 L529.004,-27.5707 L529.793,-22.7109 L528.404,-17.0214 L526.462,-13.9385 L519.916,-8.76724 L521.862,-12.1861 L525.715,-19.2451 L524.342,-25.2613 L519.479,-29.9086 L514.874,-33.1982 L509.852,-36.1778 L504.415,-38.8447 L500.984,-39.3834 L497.213,-39.2121 L493.78,-38.0063 L485.247,-34.4829 L481.139,-33.721 L475.528,-33.9994 L473.076,-34.7635 L468.406,-37.9556 L462.937,-42.21 L460.181,-45.064 L453.754,-56.4398 L440.659,-75.9595 L436.557,-79.4648 L431.21,-82.1502 L426.141,-82.9175 L410.882,-81.4177 L405.139,-80.17 L394.977,-77.1928 L364.51,-74.5695 L360.877,-76.9398 L357.181,-82.3431 L351.639,-84.957 L348.337,-85.2897 L345.337,-85.1562 L339.937,-83.9508 L333.933,-81.2194 L324.35,-73.3543 L329.664,-68.8416 L370.977,-65.7341 L374.546,-65.9702 L386.008,-69.121 L402.449,-72.8345 L423.694,-73.6017 L426.89,-71.5524 L432.006,-64.0572 L436.894,-54.5653 L439.155,-48.4849 L440.791,-44.7981 L444.168,-39.099 L464.477,-18.1387 L468.181,-14.3303 L497.256,12.9371 L510.689,23.1288 L520.102,28.4857 L524.384,28.3932 L530.064,34.8741 L540.688,52.8325 L544.765,60.1159 L547.212,67.8642 L548.73,73.0999 L551.86,81.8968 L566.158,127.688 L568.574,146.963 L568.942,151.349 L568.939,157.618 L568.004,164.339 L562.95,184.886 L559.726,188.404 L547.27,194.27 L528.782,208.912 L520.952,216.084 L484.605,251.046 L476.412,265.623 L482.738,265.603 L490.154,262.678 L493.671,262.153 L497.117,262.857 L505.541,268.266 L511.48,272.187 L514.683,274.831 L517.519,279.189 L520.369,285.113 L527.176,297.92 L532.361,302.547 L562.027,310.578 L565.84,310.335 L578.961,293.86 L580.604,290.367 L581.684,285.333 L583.565,277.318 L596.452,250.356 L610.8,238.257 L639.977,235.737 L692.553,242.2 L695.762,245.818 L698.328,248.007 L706.217,249.1 L712.877,249.741 L718.966,249.57 L721.693,249.024 L764.677,256.512 L788.366,262.1 L794.005,264.684 L805.147,269.948 L809.958,273.051 L814.811,276.825 L823.965,284.796 L832.497,293.295 L840.751,300.438 L843.97,303.022 L847.19,305.606 L874.259,328.422 L877.001,331.32 L881.237,337.958 L883.782,342.635 L887.412,351.152 L888.425,355.101 L891.394,367.057 L896.649,389.968 L896.111,426.611 L895.185,456.068 L889.844,473.762 L890.265,481.154 L888.531,485.676 L877.666,507.562 L861.996,559.711 L860.849,566.598 L849.791,604.074 L847.787,607.016 L799.176,647.933 L783.853,663.908 L780.753,657.803 L771.456,640.54 L768.404,637.62 L743.837,624.054 L753.709,653.764 L770.57,682.584 L773.511,685.472 L770.679,694.1 L766.174,699.219 L755.085,710.936 L750.024,715.08 L744.243,718.184 L731.774,722.786 L726.59,724.012 L720.727,724.871 L711.177,724.446 L707.678,722.837 L698.832,707.684 L695.432,701.716 L682.525,708.947 L664.427,721.068 L629.142,738.26 L623.231,741.265 L637.741,752.773 L663.487,745.951 L666.913,743.988 L673.775,737.184 L678.851,735.101 L682.068,736.814 L684.669,741.349 L683.905,788.12 L672.759,798.809 L663.69,806.544 L649.576,816.155 L646.27,818.232 L641.496,820.351 L638.879,821.118 L635.808,821.193 L614.389,815.781 L607.318,813.585 L559.808,824.727 L556.363,826.557 L539.575,845.721 L545.387,846.548 L555.585,843.595 L559.381,837.505 L561.831,834.058 L565.472,832.514 L577.311,831.677 L580.512,831.842 L591.296,832.506 L617.412,840.634 L620.926,842.987 L623.908,847.662 L622.853,853.144 L619.58,854.716 L614.2,854.727 L608.839,852.952 L602.976,852.155 L581.466,864.925 L587.262,872.599 L596.133,874.895 L617.233,878.184 L667.766,895.418 L686.295,894.318 L690.805,893.63 L694.163,892.103 L699.651,888.33 L704.633,886.429 L708.054,885.799 L739.806,883.385 L788.607,881.724 L798.244,904.9 L792.041,956.937 L790.89,963.818 L788.22,971.755 L786.029,975.58 L780.331,982.724 L776.899,985.879 L752.882,995.335" vector-effect="none"/>
   <path fill-rule="evenodd" d="" vector-effect="none"/>
   <path fill-rule="evenodd" d="" vector-effect="none"/>
   <path fill-rule="evenodd" d="" vector-effect="none"/>
   <path fill-rule="evenodd" d="" vector-effect="none"/>
   <path fill-rule="evenodd" d="" vector-effect="none"/>
   <path fill-rule="evenodd" d="" vector-effect="none"/>
   <path fill-rule="evenodd" d="" vector-effect="none"/>
   <path fill-rule="evenodd" d="" vector-effect="none"/>
   <path fill-rule="evenodd" d="" vector-effect="none"/>
   <path fill-rule="evenodd" d="M94.155,1166.84 L73.7042,1149.27 L48.1369,1130.26 L42.4209,1126.95 L38.4212,1126.24 L35.5487,1126.57 L31.6769,1127.83 L23.5039,1129.02 L28.7975,1122.9 L36.4333,1115.44 L93.3227,1089.32 L97.0799,1089.39 L141.309,1106.93 L146.457,1113.69 L154.178,1127.57 L123.97,1159.81 L117.841,1162.71 L111.555,1164.81 L104.681,1166.19 L94.155,1166.84" vector-effect="none"/>
   <path fill-rule="evenodd" d="" vector-effect="none"/>
   <path fill-rule="evenodd" d="" vector-effect="none"/>
   <path fill-rule="evenodd" d="" vector-effect="none"/>
   <path fill-rule="evenodd" d="" vector-effect="none"/>
   <path fill-rule="evenodd" d="" vector-effect="none"/>
   <path fill-rule="evenodd" d="" vector-effect="none"/>
   <path fill-rule="evenodd" d="" vector-effect="none"/>
   <path fill-rule="evenodd" d="" vector-effect="none"/>
   <path fill-rule="evenodd" d="" vector-effect="none"/>
   <path fill-rule="evenodd" d="" vector-effect="none"/>
   <path fill-rule="evenodd" d="" vector-effect="none"/>
   <path fill-rule="evenodd" d="" vector-effect="none"/>
   <path fill-rule="evenodd" d="" vector-effect="none"/>
   <path fill-rule="evenodd" d="" vector-effect="none"/>
   <path fill-rule="evenodd" d="M665.842,888.679 L662.372,888.069 L637.22,882.177 L631.973,878.57 L627.893,871.889 L626.238,867.838 L627.4,857.669 L629.763,852.197 L632.641,851.889 L640.285,854.16 L665.303,862.836 L668.829,864.399 L675.225,873.412 L677.597,878.049 L677.958,882.732 L667.254,888.408 L665.842,888.679" vector-effect="none"/>
   <path fill-rule="evenodd" d="" vector-effect="none"/>
  </g>
  <g stroke-opacity="1" font-size="34.375" stroke="#000000" font-style="normal" fill="none" font-weight="400" stroke-width="1" stroke-linecap="square" transform="matrix(0.999751,0,0,0.999751,8.39015e-14,-8.39015e-14)" font-family="MS Shell Dlg 2" stroke-linejoin="bevel"/>
  <g fill-opacity="1" stroke-opacity="1" font-size="34.375" stroke="#232323" font-style="normal" fill="#b7484b" font-weight="400" stroke-width="3.07087" stroke-linecap="square" transform="matrix(0.999751,0,0,0.999751,8.39015e-14,-8.39015e-14)" font-family="MS Shell Dlg 2" stroke-linejoin="bevel">
   <path fill-rule="evenodd" d="M1705.64,1286.91 L1705.64,1286.81 L1705.54,1286.71 L1705.44,1286.61 L1705.44,1286.51 L1705.44,1286.41 L1705.44,1286.31 L1705.34,1286.31 L1705.34,1286.21 L1705.34,1286.11 L1705.44,1286.11 L1705.54,1286.01 L1705.94,1285.91 L1706.24,1285.71 L1706.34,1285.71 L1706.54,1285.71 L1706.54,1285.61 L1706.54,1285.71 L1706.24,1285.71 L1705.94,1285.91 L1705.34,1286.11 L1705.34,1286.01 L1705.34,1285.91 L1705.34,1285.81 L1705.34,1285.71 L1705.34,1285.61 L1705.24,1285.51 L1705.24,1285.41 L1705.24,1285.31 L1705.24,1285.21 L1705.34,1285.11 L1705.34,1285.01 L1705.44,1284.91 L1705.44,1284.81 L1705.54,1284.81 L1705.64,1284.71 L1705.74,1284.71 L1705.74,1284.81 L1706.04,1285.11 L1706.04,1285.21 L1706.14,1285.31 L1706.64,1285.01 L1706.84,1284.81 L1706.94,1284.81 L1706.94,1284.71 L1706.84,1284.71 L1706.84,1284.61 L1706.74,1284.51 L1706.74,1284.41 L1706.64,1284.31 L1707.04,1284.81 L1707.24,1285.01 L1707.34,1285.21 L1707.64,1285.81 L1707.44,1285.91 L1707.24,1286.21 L1706.94,1286.41 L1706.84,1286.51 L1706.34,1286.91 L1706.24,1287.01 L1706.14,1287.11 L1706.04,1287.21 L1705.84,1287.31 L1705.74,1287.41 L1705.64,1287.31 L1705.64,1287.01 L1705.64,1286.91 L1705.64,1286.91 M1706.94,1286.31 L1706.84,1286.31 L1706.94,1286.41 L1706.94,1286.31 L1706.94,1286.31 M1706.56,1285.64 L1706.6,1285.64 L1706.6,1285.62 L1706.56,1285.62 L1706.56,1285.64 M1706.64,1285.6 L1706.66,1285.6 L1706.66,1285.6 L1706.64,1285.6 L1706.64,1285.6 M1706.69,1285.63 L1706.78,1285.63 L1706.78,1285.6 L1706.69,1285.6 L1706.69,1285.63 M1706.8,1285.72 L1706.84,1285.72 L1706.84,1285.64 L1706.8,1285.64 L1706.8,1285.72 M1706.84,1285.77 L1706.84,1285.77 L1706.84,1285.74 L1706.84,1285.74 L1706.84,1285.77 M1706.84,1285.84 L1706.85,1285.84 L1706.85,1285.81 L1706.84,1285.81 L1706.84,1285.84 M1706.84,1286.14 L1706.86,1286.14 L1706.86,1285.92 L1706.84,1285.92 L1706.84,1286.14 M1706.84,1286.24 L1706.84,1286.24 L1706.84,1286.22 L1706.84,1286.22 L1706.84,1286.24 M1705.66,1286.78 L1705.8,1286.78 L1705.8,1286.73 L1705.66,1286.73 L1705.66,1286.78 M1705.84,1286.81 L1705.84,1286.91 L1705.84,1286.81 L1705.74,1286.81 L1705.84,1286.81 L1705.74,1286.81 L1705.84,1286.81 L1705.84,1286.81 M1705.8,1287.05 L1705.83,1287.05 L1705.83,1286.95 L1705.8,1286.95 L1705.8,1287.05 M1705.83,1287.19 L1705.84,1287.19 L1705.84,1287.15 L1705.83,1287.15 L1705.83,1287.19 M1705.83,1287.32 L1705.83,1287.32 L1705.83,1287.24 L1705.83,1287.24 L1705.83,1287.32 M1705.94,1286.61 L1705.84,1286.71 L1705.84,1286.61 L1705.94,1286.61 L1705.94,1286.61 M1706.02,1286.54 L1706.03,1286.54 L1706.03,1286.52 L1706.02,1286.52 L1706.02,1286.54 M1706.1,1286.31 L1706.1,1286.31 L1706.1,1286.3 L1706.1,1286.3 L1706.1,1286.31 M1706.11,1286.29 L1706.12,1286.29 L1706.12,1286.28 L1706.11,1286.28 L1706.11,1286.29 M1706.34,1286.11 L1706.44,1286.01 L1706.24,1286.21 L1706.34,1286.11 L1706.34,1286.11 M1706.49,1285.96 L1706.53,1285.96 L1706.53,1285.92 L1706.49,1285.92 L1706.49,1285.96 M1706.64,1285.81 L1706.64,1285.71 L1706.54,1285.71 L1706.64,1285.71 L1706.64,1285.81 L1706.64,1285.81 M1705.62,1285.48 L1705.68,1285.48 L1705.68,1285.47 L1705.62,1285.47 L1705.62,1285.48 M1705.84,1285.41 L1706.04,1285.31 L1705.74,1285.41 L1705.84,1285.41 L1705.84,1285.41 M1706.14,1285.31 L1706.14,1285.41 L1706.24,1285.51 L1706.14,1285.41 L1706.14,1285.31 L1706.14,1285.41 L1706.14,1285.31 L1706.14,1285.31 M1706.34,1285.61 L1706.24,1285.61 L1706.24,1285.51 L1706.24,1285.61 L1706.34,1285.61 L1706.34,1285.61 M1706.46,1285.61 L1706.47,1285.61 L1706.47,1285.61 L1706.46,1285.61 L1706.46,1285.61 M1706.53,1285.61 L1706.55,1285.61 L1706.55,1285.6 L1706.53,1285.6 L1706.53,1285.61 M1706.55,1285.6 L1706.62,1285.6 L1706.62,1285.59 L1706.55,1285.59 L1706.55,1285.6 M1706.78,1285.63 L1706.78,1285.63 L1706.78,1285.6 L1706.78,1285.6 L1706.78,1285.63 M1707.34,1285.71 L1707.14,1285.51 L1707.14,1285.41 L1707.14,1285.51 L1707.34,1285.61 L1707.34,1285.71 L1707.34,1285.71 M1706.74,1285.41 L1706.74,1285.51 L1706.74,1285.41 L1706.74,1285.31 L1706.74,1285.41 L1706.74,1285.41 M1706.7,1285.26 L1706.73,1285.26 L1706.73,1285.18 L1706.7,1285.18 L1706.7,1285.26" vector-effect="none"/>
   <path fill-rule="evenodd" d="M1709.24,1287.41 L1708.94,1287.51 L1709.24,1287.41 L1709.24,1287.51 L1709.14,1287.51 L1709.14,1287.61 L1708.94,1287.61 L1708.84,1287.71 L1708.74,1287.81 L1708.74,1287.71 L1708.74,1287.81 L1708.64,1287.81 L1708.54,1287.91 L1708.34,1288.01 L1708.24,1288.01 L1707.84,1288.21 L1707.74,1288.21 L1707.64,1288.31 L1707.54,1288.31 L1707.54,1288.41 L1707.44,1288.41 L1707.44,1288.51 L1707.34,1288.51 L1707.24,1288.61 L1707.14,1288.71 L1707.14,1288.61 L1707.14,1288.71 L1706.84,1288.91 L1706.74,1288.71 L1706.54,1288.51 L1706.44,1288.41 L1706.34,1288.31 L1706.24,1288.31 L1706.04,1288.11 L1705.84,1288.01 L1705.74,1287.91 L1705.64,1287.81 L1705.64,1287.71 L1705.24,1287.01 L1705.44,1287.21 L1705.54,1287.31 L1705.64,1287.31 L1705.74,1287.41 L1705.84,1287.31 L1706.04,1287.21 L1706.34,1286.91 L1706.44,1286.81 L1706.54,1287.01 L1706.84,1286.81 L1706.54,1287.01 L1706.44,1286.81 L1706.54,1286.81 L1706.74,1286.61 L1706.84,1286.51 L1706.94,1286.51 L1707.04,1286.31 L1707.24,1286.21 L1707.24,1286.11 L1707.54,1285.91 L1707.64,1285.81 L1707.74,1285.91 L1707.64,1285.81 L1707.74,1285.71 L1708.04,1285.51 L1708.24,1285.41 L1708.34,1285.31 L1708.44,1285.21 L1708.54,1285.21 L1708.64,1285.11 L1708.74,1285.11 L1708.84,1285.01 L1708.94,1284.91 L1709.04,1284.81 L1709.14,1284.71 L1709.24,1284.71 L1709.44,1284.51 L1709.54,1284.51 L1709.84,1284.31 L1709.94,1284.21 L1710.04,1284.21 L1710.14,1284.31 L1709.94,1284.41 L1710.14,1284.31 L1710.44,1284.71 L1710.14,1284.81 L1710.14,1284.71 L1710.14,1284.81 L1710.44,1284.71 L1710.44,1284.81 L1710.24,1284.91 L1708.94,1285.81 L1708.74,1285.51 L1708.64,1285.31 L1708.74,1285.21 L1708.84,1285.21 L1708.74,1285.21 L1708.64,1285.31 L1708.74,1285.41 L1708.84,1285.61 L1708.94,1285.81 L1708.84,1285.81 L1708.74,1285.81 L1708.74,1285.91 L1708.64,1285.81 L1708.54,1285.81 L1708.44,1285.81 L1708.34,1285.81 L1708.34,1285.91 L1708.24,1286.01 L1708.14,1286.01 L1708.24,1286.01 L1708.34,1286.01 L1708.34,1285.91 L1708.34,1285.81 L1708.44,1286.01 L1708.64,1286.51 L1708.74,1286.51 L1708.64,1286.51 L1708.64,1286.61 L1708.44,1286.71 L1708.64,1286.61 L1708.64,1286.51 L1708.74,1286.51 L1708.74,1286.61 L1708.74,1286.51 L1708.34,1285.81 L1708.44,1285.81 L1708.54,1285.81 L1708.64,1285.81 L1708.64,1285.91 L1708.74,1285.91 L1708.84,1285.81 L1708.94,1285.81 L1709.04,1285.81 L1709.24,1285.81 L1709.34,1285.81 L1709.44,1285.81 L1709.64,1285.91 L1709.74,1285.91 L1709.84,1285.91 L1709.94,1285.91 L1710.04,1285.91 L1710.04,1286.01 L1710.04,1285.91 L1709.94,1285.91 L1709.84,1285.91 L1709.84,1285.81 L1709.94,1285.81 L1710.04,1285.71 L1710.34,1285.51 L1710.44,1285.41 L1710.64,1285.31 L1710.74,1285.31 L1710.64,1285.31 L1710.44,1285.41 L1710.34,1285.51 L1710.24,1285.51 L1710.04,1285.71 L1709.94,1285.71 L1709.94,1285.81 L1709.84,1285.81 L1709.74,1285.81 L1709.64,1285.81 L1709.44,1285.81 L1709.34,1285.81 L1709.24,1285.81 L1709.14,1285.81 L1709.04,1285.81 L1708.94,1285.81 L1709.34,1285.51 L1709.64,1285.31 L1710.14,1285.01 L1710.24,1285.01 L1710.44,1284.81 L1710.54,1284.81 L1710.64,1285.11 L1710.54,1285.21 L1710.44,1285.21 L1710.44,1285.11 L1710.34,1285.11 L1710.24,1285.11 L1710.34,1285.11 L1710.44,1285.11 L1710.44,1285.21 L1710.54,1285.21 L1710.64,1285.11 L1710.74,1285.31 L1710.84,1285.41 L1711.04,1285.71 L1711.24,1285.91 L1711.24,1286.01 L1711.34,1286.11 L1711.34,1286.21 L1711.14,1286.31 L1711.04,1286.31 L1710.74,1286.41 L1710.54,1286.51 L1710.44,1286.61 L1710.34,1286.61 L1710.34,1286.71 L1710.24,1286.71 L1710.04,1286.81 L1709.84,1287.01 L1709.74,1287.01 L1709.74,1287.11 L1709.54,1287.21 L1709.44,1287.31 L1709.24,1287.41 L1709.34,1287.31 L1709.24,1287.41 L1709.24,1287.41 M1707.11,1288.06 L1707.21,1288.06 L1707.21,1288.05 L1707.11,1288.05 L1707.11,1288.06 M1707.25,1288.05 L1707.3,1288.05 L1707.3,1288.05 L1707.25,1288.05 L1707.25,1288.05 M1707.33,1288.05 L1707.35,1288.05 L1707.35,1288.05 L1707.33,1288.05 L1707.33,1288.05 M1707.39,1288.06 L1707.43,1288.06 L1707.43,1288.06 L1707.39,1288.06 L1707.39,1288.06 M1707.54,1288.01 L1707.64,1288.01 L1707.74,1287.91 L1707.64,1288.01 L1707.54,1288.01 L1707.44,1288.01 L1707.54,1288.01 L1707.54,1288.01 M1707.74,1287.94 L1707.81,1287.94 L1707.81,1287.93 L1707.74,1287.93 L1707.74,1287.94 M1707.84,1287.91 L1707.94,1287.91 L1708.04,1287.91 L1707.94,1287.91 L1707.84,1287.91 L1707.84,1287.91 M1708.01,1287.87 L1708.05,1287.87 L1708.05,1287.86 L1708.01,1287.86 L1708.01,1287.87 M1708.08,1287.86 L1708.13,1287.86 L1708.13,1287.86 L1708.08,1287.86 L1708.08,1287.86 M1708.15,1287.86 L1708.17,1287.86 L1708.17,1287.85 L1708.15,1287.85 L1708.15,1287.86 M1708.22,1287.85 L1708.23,1287.85 L1708.23,1287.85 L1708.22,1287.85 L1708.22,1287.85 M1708.18,1287.85 L1708.23,1287.85 L1708.23,1287.72 L1708.18,1287.72 L1708.18,1287.85 M1708.16,1287.67 L1708.16,1287.67 L1708.16,1287.66 L1708.16,1287.66 L1708.16,1287.67 M1708.3,1287.6 L1708.34,1287.6 L1708.34,1287.59 L1708.3,1287.59 L1708.3,1287.6 M1708.39,1287.62 L1708.57,1287.62 L1708.57,1287.57 L1708.39,1287.57 L1708.39,1287.62 M1708.64,1287.51 L1708.74,1287.41 L1708.84,1287.41 L1708.94,1287.41 L1708.94,1287.31 L1708.94,1287.41 L1708.74,1287.41 L1708.74,1287.51 L1708.64,1287.51 L1708.64,1287.51 M1708.94,1287.34 L1708.95,1287.34 L1708.95,1287.31 L1708.94,1287.31 L1708.94,1287.34 M1708.92,1286.99 L1708.92,1286.99 L1708.92,1286.99 L1708.92,1286.99 L1708.92,1286.99 M1708.92,1286.99 L1708.94,1286.99 L1708.94,1286.98 L1708.92,1286.98 L1708.92,1286.99 M1708.95,1286.98 L1708.97,1286.98 L1708.97,1286.97 L1708.95,1286.97 L1708.95,1286.98 M1709.08,1287.02 L1709.13,1287.02 L1709.13,1286.94 L1709.08,1286.94 L1709.08,1287.02 M1709.24,1287.11 L1709.24,1287.21 L1709.34,1287.21 L1709.24,1287.21 L1709.24,1287.11 L1709.24,1287.11 M1709.43,1287.24 L1709.44,1287.24 L1709.44,1287.14 L1709.43,1287.14 L1709.43,1287.24 M1707.74,1285.91 L1707.84,1285.91 L1707.94,1285.81 L1707.84,1285.91 L1707.74,1285.91 L1707.74,1285.91 M1708.04,1285.71 L1708.14,1285.61 L1708.04,1285.81 L1708.04,1285.71 L1708.04,1285.71 M1708.15,1285.62 L1708.19,1285.62 L1708.19,1285.6 L1708.15,1285.6 L1708.15,1285.62 M1708.19,1285.6 L1708.21,1285.6 L1708.21,1285.58 L1708.19,1285.58 L1708.19,1285.6 M1708.34,1285.51 L1708.34,1285.41 L1708.44,1285.41 L1708.44,1285.31 L1708.44,1285.41 L1708.34,1285.41 L1708.34,1285.51 L1708.24,1285.61 L1708.34,1285.51 L1708.34,1285.51 M1708.54,1285.31 L1708.64,1285.31 L1708.54,1285.31 L1708.44,1285.31 L1708.54,1285.31 L1708.54,1285.31 M1708.24,1286.81 L1708.04,1286.91 L1707.94,1287.01 L1707.54,1286.31 L1707.64,1286.31 L1707.74,1286.21 L1707.64,1286.31 L1707.54,1286.31 L1707.94,1287.01 L1707.74,1287.21 L1707.84,1287.11 L1708.24,1286.81 L1708.34,1286.81 L1708.24,1286.81 L1708.24,1286.81 M1707.52,1287.42 L1707.62,1287.42 L1707.62,1287.33 L1707.52,1287.33 L1707.52,1287.42 M1707.43,1287.48 L1707.48,1287.48 L1707.48,1287.46 L1707.43,1287.46 L1707.43,1287.48 M1707.34,1287.51 L1707.24,1287.51 L1707.14,1287.31 L1706.94,1286.81 L1706.84,1286.81 L1707.24,1287.51 L1707.34,1287.51 L1707.44,1287.51 L1707.34,1287.51 L1707.34,1287.51 M1707.14,1287.51 L1706.94,1287.51 L1707.14,1287.51 L1707.24,1287.51 L1707.24,1287.61 L1707.24,1287.51 L1707.14,1287.51 L1707.14,1287.51 M1707.24,1287.71 L1707.14,1287.71 L1707.04,1287.71 L1706.94,1287.71 L1706.84,1287.61 L1706.54,1287.51 L1706.44,1287.41 L1706.34,1287.51 L1706.14,1287.51 L1706.04,1287.51 L1705.84,1287.51 L1705.94,1287.51 L1706.04,1287.61 L1706.14,1287.51 L1706.24,1287.51 L1706.34,1287.51 L1706.44,1287.51 L1706.54,1287.51 L1706.74,1287.61 L1706.84,1287.61 L1706.84,1287.71 L1706.94,1287.71 L1707.04,1287.71 L1707.14,1287.71 L1707.24,1287.71 L1707.24,1287.81 L1707.24,1287.71 L1707.24,1287.71 M1707.03,1288.03 L1707.16,1288.03 L1707.16,1287.89 L1707.03,1287.89 L1707.03,1288.03 M1707.04,1288.06 L1707.09,1288.06 L1707.09,1288.03 L1707.04,1288.03 L1707.04,1288.06 M1707.64,1288.21 L1707.54,1288.11 L1707.54,1288.21 L1707.64,1288.21 L1707.64,1288.21 M1706.04,1287.31 L1705.94,1287.41 L1706.04,1287.31 L1706.04,1287.21 L1706.14,1287.21 L1706.34,1287.01 L1706.14,1287.21 L1706.04,1287.31 L1706.04,1287.31 M1705.96,1287.5 L1705.97,1287.5 L1705.97,1287.38 L1705.96,1287.38 L1705.96,1287.5 M1706.01,1287.51 L1706.27,1287.51 L1706.27,1287.43 L1706.01,1287.43 L1706.01,1287.51 M1706.31,1287.42 L1706.41,1287.42 L1706.41,1287.38 L1706.31,1287.38 L1706.31,1287.42 M1706.64,1287.41 L1706.94,1287.51 L1706.64,1287.41 L1706.54,1287.41 L1706.44,1287.41 L1706.54,1287.41 L1706.64,1287.41 L1706.64,1287.41 M1705.81,1287.5 L1705.81,1287.5 L1705.81,1287.5 L1705.81,1287.5 L1705.81,1287.5 M1708.65,1287.73 L1708.84,1287.73 L1708.84,1287.57 L1708.65,1287.57 L1708.65,1287.73 M1706.88,1286.74 L1706.9,1286.74 L1706.9,1286.7 L1706.88,1286.7 L1706.88,1286.74 M1706.94,1286.71 L1707.04,1286.71 L1707.14,1286.61 L1707.24,1286.61 L1707.34,1286.51 L1707.44,1286.51 L1707.24,1286.61 L1707.04,1286.71 L1706.94,1286.71 L1706.94,1286.71 M1708.04,1286.11 L1707.94,1286.11 L1707.84,1286.21 L1707.94,1286.11 L1708.04,1286.11 L1708.04,1286.11 M1709.81,1284.46 L1709.82,1284.46 L1709.82,1284.46 L1709.81,1284.46 L1709.81,1284.46 M1709.24,1284.81 L1709.24,1284.91 L1709.24,1284.81 L1709.34,1284.81 L1709.44,1284.71 L1709.54,1284.61 L1709.34,1284.81 L1709.24,1284.81 L1709.24,1284.81 M1709.89,1284.57 L1709.92,1284.57 L1709.92,1284.55 L1709.89,1284.55 L1709.89,1284.57 M1709.97,1284.6 L1710.01,1284.6 L1710.01,1284.58 L1709.97,1284.58 L1709.97,1284.6 M1710.64,1286.01 L1710.74,1286.01 L1710.74,1285.91 L1710.74,1285.81 L1710.84,1285.81 L1710.84,1285.71 L1710.94,1285.71 L1710.94,1285.61 L1710.94,1285.51 L1710.84,1285.51 L1710.94,1285.61 L1710.84,1285.71 L1710.84,1285.81 L1710.74,1285.81 L1710.74,1285.91 L1710.64,1286.01 L1710.54,1286.11 L1710.34,1286.11 L1710.34,1286.21 L1710.44,1286.11 L1710.64,1286.01 L1710.64,1286.01 M1710.88,1285.47 L1710.88,1285.47 L1710.88,1285.46 L1710.88,1285.46 L1710.88,1285.47 M1708.73,1286.58 L1708.73,1286.58 L1708.73,1286.57 L1708.73,1286.57 L1708.73,1286.58 M1708.84,1286.71 L1708.94,1286.51 L1709.04,1286.51 L1709.34,1286.31 L1709.44,1286.21 L1709.04,1286.51 L1708.94,1286.51 L1708.84,1286.71 L1708.84,1286.61 L1708.74,1286.61 L1708.84,1286.61 L1708.84,1286.71 L1708.84,1286.71 M1709.53,1286.18 L1709.57,1286.18 L1709.57,1286.16 L1709.53,1286.16 L1709.53,1286.18 M1709.6,1286.14 L1709.62,1286.14 L1709.62,1286.13 L1709.6,1286.13 L1709.6,1286.14 M1709.73,1286.09 L1709.77,1286.09 L1709.77,1286.08 L1709.73,1286.08 L1709.73,1286.09 M1709.95,1286.02 L1709.96,1286.02 L1709.96,1286.01 L1709.95,1286.01 L1709.95,1286.02 M1709.99,1286 L1710.02,1286 L1710.02,1286 L1709.99,1286 L1709.99,1286 M1710,1285.86 L1710.08,1285.86 L1710.08,1285.85 L1710,1285.85 L1710,1285.86 M1710.54,1285.81 L1710.44,1285.81 L1710.34,1285.81 L1710.44,1285.81 L1710.54,1285.81 L1710.54,1285.81 M1710.34,1285.91 L1710.24,1285.91 L1710.14,1286.01 L1710.04,1286.01 L1710.24,1285.91 L1710.34,1285.91 L1710.44,1285.81 L1710.54,1285.81 L1710.44,1285.81 L1710.34,1285.91 L1710.34,1285.91 M1710.55,1285.77 L1710.59,1285.77 L1710.59,1285.77 L1710.55,1285.77 L1710.55,1285.77 M1710.59,1285.82 L1710.73,1285.82 L1710.73,1285.77 L1710.59,1285.77 L1710.59,1285.82 M1710.75,1285.87 L1710.76,1285.87 L1710.76,1285.86 L1710.75,1285.86 L1710.75,1285.87 M1710.74,1285.86 L1710.74,1285.86 L1710.74,1285.86 L1710.74,1285.86 L1710.74,1285.86 M1710.23,1285.05 L1710.27,1285.05 L1710.27,1285.02 L1710.23,1285.02 L1710.23,1285.05" vector-effect="none"/>
   <path fill-rule="evenodd" d="M1707.07,1288.06 L1707.07,1288.06 L1707.07,1288.06 L1707.07,1288.06" vector-effect="none"/>
   <path fill-rule="evenodd" d="M1707.07,1288.06 L1707.07,1288.06 L1707.07,1288.06 L1707.07,1288.06" vector-effect="none"/>
   <path fill-rule="evenodd" d="M1708.14,1278.31 L1707.74,1278.41 L1707.74,1278.31 L1707.74,1278.21 L1707.74,1278.11 L1707.64,1278.11 L1707.74,1278.11 L1707.84,1278.11 L1707.94,1278.01 L1708.04,1278.01 L1708.14,1278.01 L1708.14,1277.91 L1708.24,1277.91 L1708.34,1277.91 L1708.54,1277.91 L1708.84,1277.91 L1708.94,1277.91 L1709.04,1277.81 L1709.14,1277.81 L1709.24,1277.81 L1709.34,1277.71 L1709.64,1277.51 L1709.74,1277.51 L1709.74,1277.41 L1709.84,1277.41 L1709.94,1277.41 L1710.14,1277.41 L1710.24,1277.31 L1710.34,1277.31 L1710.44,1277.51 L1710.44,1277.61 L1710.54,1277.81 L1710.54,1277.91 L1710.64,1278.11 L1710.64,1278.21 L1710.64,1278.31 L1710.54,1278.51 L1710.74,1278.41 L1710.54,1278.61 L1710.24,1278.61 L1710.04,1278.71 L1709.94,1278.71 L1709.84,1278.71 L1709.74,1278.71 L1709.74,1278.61 L1709.64,1278.61 L1709.54,1278.51 L1709.34,1278.31 L1709.24,1278.41 L1709.34,1278.31 L1709.44,1278.41 L1709.24,1278.51 L1709.24,1278.41 L1709.24,1278.51 L1709.44,1278.41 L1709.54,1278.51 L1708.94,1278.81 L1708.84,1278.61 L1708.74,1278.61 L1708.74,1278.41 L1708.84,1278.31 L1709.04,1278.21 L1709.04,1278.31 L1709.04,1278.21 L1708.84,1278.31 L1708.74,1278.41 L1708.74,1278.61 L1708.64,1278.71 L1708.74,1278.71 L1708.84,1278.61 L1708.94,1278.81 L1708.84,1278.81 L1708.64,1278.91 L1708.44,1278.91 L1708.34,1279.01 L1707.84,1279.11 L1707.84,1278.91 L1707.84,1278.71 L1707.74,1278.51 L1707.74,1278.41 L1708.14,1278.31 L1708.14,1278.31 M1708.24,1278.71 L1708.24,1278.81 L1708.04,1278.81 L1708.24,1278.81 L1708.44,1278.71 L1708.54,1278.71 L1708.24,1278.81 L1708.24,1278.71 L1708.24,1278.71 M1707.86,1278.7 L1707.89,1278.7 L1707.89,1278.68 L1707.86,1278.68 L1707.86,1278.7 M1707.96,1278.68 L1708.01,1278.68 L1708.01,1278.66 L1707.96,1278.66 L1707.96,1278.68 M1707.9,1278.67 L1707.96,1278.67 L1707.96,1278.66 L1707.9,1278.66 L1707.9,1278.67 M1708.04,1278.61 L1708.04,1278.71 L1708.04,1278.61 L1708.04,1278.51 L1708.14,1278.51 L1708.04,1278.51 L1708.04,1278.61 L1708.04,1278.61 M1708.44,1278.61 L1708.54,1278.51 L1708.24,1278.61 L1708.44,1278.61 L1708.44,1278.61 M1708.44,1278.41 L1708.54,1278.51 L1708.44,1278.41 L1708.54,1278.41 L1708.54,1278.11 L1708.64,1278.11 L1708.84,1278.01 L1708.44,1278.21 L1708.54,1278.11 L1708.44,1278.41 L1708.44,1278.41 M1709.14,1278.31 L1709.14,1278.21 L1709.24,1278.11 L1709.34,1278.31 L1709.24,1278.11 L1709.14,1278.11 L1709.04,1278.11 L1708.94,1278.01 L1709.04,1277.91 L1708.94,1278.01 L1709.04,1278.11 L1709.14,1278.11 L1709.24,1278.11 L1709.14,1278.21 L1709.14,1278.31 L1709.14,1278.31 M1709.07,1277.92 L1709.08,1277.92 L1709.08,1277.9 L1709.07,1277.9 L1709.07,1277.92 M1709.03,1277.87 L1709.05,1277.87 L1709.05,1277.84 L1709.03,1277.84 L1709.03,1277.87" vector-effect="none"/>
   <path fill-rule="evenodd" d="M1707.94,1276.91 L1708.14,1276.91 L1708.34,1276.91 L1708.44,1276.91 L1708.54,1276.81 L1708.64,1276.81 L1708.64,1276.91 L1708.74,1276.91 L1708.74,1277.01 L1708.74,1277.11 L1708.64,1277.41 L1708.74,1277.51 L1708.84,1277.61 L1708.94,1277.71 L1709.04,1277.81 L1708.94,1277.81 L1708.94,1277.91 L1708.84,1277.91 L1708.74,1277.91 L1708.54,1277.91 L1708.34,1277.91 L1708.24,1277.91 L1708.14,1277.91 L1708.04,1278.01 L1707.94,1278.01 L1707.84,1278.01 L1707.84,1278.11 L1707.74,1278.11 L1707.64,1278.11 L1707.54,1278.01 L1707.54,1277.81 L1707.54,1277.71 L1707.64,1277.41 L1707.64,1277.31 L1707.74,1277.31 L1707.64,1277.31 L1707.54,1277.81 L1707.54,1277.71 L1707.44,1277.51 L1707.24,1277.11 L1707.24,1277.01 L1707.24,1277.11 L1707.14,1276.91 L1707.34,1276.81 L1707.24,1276.71 L1707.14,1276.41 L1706.94,1276.41 L1706.84,1276.41 L1707.04,1275.91 L1707.04,1275.81 L1707.04,1275.71 L1707.04,1275.61 L1707.14,1275.61 L1706.94,1276.41 L1706.94,1276.31 L1707.34,1276.21 L1707.44,1276.21 L1707.64,1276.21 L1707.74,1276.21 L1707.84,1276.21 L1707.94,1276.21 L1708.14,1276.21 L1708.24,1276.21 L1708.44,1276.21 L1708.34,1276.21 L1708.24,1276.21 L1708.04,1276.21 L1707.94,1276.21 L1707.74,1276.21 L1707.64,1276.21 L1707.44,1276.31 L1707.24,1276.31 L1707.14,1276.41 L1707.24,1276.41 L1707.24,1276.51 L1707.34,1276.81 L1707.44,1276.81 L1707.84,1276.71 L1708.04,1276.71 L1708.04,1276.91 L1707.94,1276.91 L1707.84,1276.91 L1707.84,1277.01 L1707.74,1277.11 L1707.64,1277.11 L1707.64,1277.21 L1707.54,1277.21 L1707.64,1277.21 L1707.64,1277.11 L1707.74,1277.11 L1707.84,1277.01 L1707.94,1276.91 L1707.94,1276.91 M1707.27,1277.07 L1707.31,1277.07 L1707.31,1277.05 L1707.27,1277.05 L1707.27,1277.07 M1707.44,1277.21 L1707.44,1277.11 L1707.34,1277.11 L1707.44,1277.11 L1707.44,1277.21 L1707.44,1277.21 M1707.68,1277.31 L1707.71,1277.31 L1707.71,1277.25 L1707.68,1277.25 L1707.68,1277.31" vector-effect="none"/>
   <path fill-rule="evenodd" d="M1709.44,1278.71 L1709.14,1278.81 L1709.04,1278.91 L1708.94,1278.91 L1709.04,1279.21 L1709.04,1279.31 L1709.14,1279.41 L1709.44,1279.41 L1709.54,1279.51 L1709.64,1279.51 L1709.74,1279.41 L1709.84,1279.41 L1710.04,1279.31 L1710.14,1279.31 L1710.24,1279.21 L1710.34,1279.21 L1710.44,1279.21 L1710.54,1279.31 L1710.44,1279.31 L1710.04,1279.51 L1709.74,1279.61 L1709.64,1279.61 L1709.64,1279.71 L1709.54,1279.71 L1709.64,1279.81 L1709.64,1279.91 L1709.64,1280.01 L1709.74,1280.11 L1709.84,1280.21 L1709.94,1280.31 L1709.84,1280.31 L1709.84,1280.21 L1709.74,1280.21 L1709.74,1280.11 L1709.64,1280.11 L1709.64,1280.01 L1709.64,1279.91 L1709.54,1279.91 L1709.54,1279.81 L1709.54,1279.71 L1709.54,1279.61 L1709.44,1279.51 L1709.34,1279.51 L1709.24,1279.51 L1709.24,1279.61 L1709.14,1279.61 L1708.94,1279.61 L1708.84,1279.61 L1708.64,1279.61 L1708.54,1279.51 L1708.54,1279.41 L1708.44,1279.41 L1708.34,1279.41 L1708.24,1279.41 L1708.14,1279.41 L1708.04,1279.41 L1707.94,1279.41 L1707.84,1279.41 L1707.94,1279.41 L1707.84,1279.11 L1708.24,1279.01 L1708.64,1278.91 L1708.94,1278.81 L1709.34,1278.61 L1709.44,1278.61 L1709.54,1278.61 L1709.34,1278.61 L1709.44,1278.71 L1709.44,1278.71 M1708.48,1279.36 L1708.48,1279.36 L1708.48,1279.36 L1708.48,1279.36 L1708.48,1279.36" vector-effect="none"/>
   <path fill-rule="evenodd" d="M1711.34,1276.91 L1711.24,1276.91 L1711.14,1276.91 L1710.94,1277.01 L1710.84,1277.01 L1710.74,1277.11 L1710.64,1277.21 L1710.54,1277.21 L1710.54,1277.01 L1710.44,1276.61 L1710.44,1276.51 L1710.44,1276.31 L1710.34,1276.21 L1710.34,1276.11 L1710.24,1276.11 L1710.34,1276.11 L1710.44,1276.01 L1710.44,1275.71 L1710.14,1275.81 L1710.14,1275.71 L1710.24,1275.71 L1710.14,1275.71 L1710.14,1275.81 L1709.94,1275.91 L1709.84,1275.91 L1709.74,1275.81 L1710.04,1275.61 L1710.14,1275.61 L1710.24,1275.51 L1710.34,1275.51 L1710.44,1275.51 L1710.64,1275.41 L1710.74,1275.41 L1710.84,1275.41 L1710.84,1275.31 L1711.04,1275.31 L1711.14,1275.31 L1711.34,1275.31 L1711.54,1275.21 L1711.64,1275.11 L1711.74,1275.01 L1711.74,1275.11 L1711.84,1275.11 L1711.74,1275.21 L1711.64,1275.21 L1711.54,1275.31 L1711.44,1275.31 L1711.34,1275.31 L1711.24,1275.31 L1711.24,1275.41 L1711.14,1275.41 L1711.04,1275.41 L1710.94,1275.41 L1710.94,1275.51 L1710.94,1275.61 L1710.84,1275.61 L1710.74,1275.61 L1710.74,1275.71 L1710.84,1275.91 L1710.74,1275.91 L1710.84,1275.91 L1710.74,1275.71 L1710.84,1275.71 L1710.94,1275.61 L1711.34,1276.51 L1711.34,1276.61 L1711.54,1276.91 L1711.44,1276.91 L1711.34,1276.91 L1711.34,1276.91 M1710.24,1275.71 L1710.34,1275.61 L1710.24,1275.61 L1710.24,1275.71 L1710.24,1275.71 M1710.44,1275.51 L1710.44,1275.61 L1710.34,1275.61 L1710.44,1275.61 L1710.44,1275.51 L1710.44,1275.51 M1710.43,1275.55 L1710.44,1275.55 L1710.44,1275.53 L1710.43,1275.53 L1710.43,1275.55 M1710.44,1276.15 L1710.49,1276.15 L1710.49,1276.14 L1710.44,1276.14 L1710.44,1276.15 M1710.74,1276.01 L1710.64,1276.11 L1710.74,1276.01 L1710.74,1275.91 L1710.74,1276.01 L1710.74,1276.01 M1710.76,1275.94 L1710.76,1275.94 L1710.76,1275.93 L1710.76,1275.93 L1710.76,1275.94" vector-effect="none"/>
   <path fill-rule="evenodd" d="M1709.24,1277.71 L1709.14,1277.81 L1709.04,1277.81 L1708.94,1277.81 L1708.84,1277.61 L1708.74,1277.51 L1708.74,1277.41 L1708.64,1277.41 L1708.74,1277.31 L1708.74,1277.11 L1708.74,1277.01 L1708.74,1276.91 L1708.64,1276.81 L1708.94,1276.71 L1709.14,1276.61 L1709.24,1276.61 L1709.34,1276.51 L1709.34,1276.41 L1709.64,1276.31 L1709.74,1276.31 L1709.34,1276.41 L1709.34,1276.31 L1709.24,1276.11 L1709.24,1276.01 L1709.24,1275.91 L1709.14,1275.91 L1709.44,1275.91 L1709.64,1275.81 L1709.74,1275.81 L1709.84,1276.01 L1709.54,1276.01 L1709.54,1276.21 L1709.84,1276.11 L1709.94,1276.11 L1710.14,1276.11 L1710.24,1276.11 L1710.24,1276.21 L1710.34,1276.21 L1710.44,1276.31 L1710.54,1277.21 L1710.34,1277.21 L1710.24,1277.31 L1710.14,1277.31 L1710.04,1277.41 L1709.94,1277.41 L1709.84,1277.41 L1709.74,1277.41 L1709.64,1277.51 L1709.54,1277.51 L1709.44,1277.61 L1709.34,1277.71 L1709.24,1277.71 L1709.24,1277.71 M1709.94,1276.31 L1709.84,1276.31 L1709.74,1276.31 L1709.84,1276.31 L1709.94,1276.31 L1709.94,1276.31 M1710.03,1276.28 L1710.05,1276.28 L1710.05,1276.27 L1710.03,1276.27 L1710.03,1276.28 M1710.07,1276.26 L1710.14,1276.26 L1710.14,1276.23 L1710.07,1276.23 L1710.07,1276.26 M1710.27,1276.2 L1710.31,1276.2 L1710.31,1276.19 L1710.27,1276.19 L1710.27,1276.2" vector-effect="none"/>
   <path fill-rule="evenodd" d="M1711.04,1276.91 L1711.14,1276.91 L1711.24,1276.91 L1711.34,1276.91 L1711.54,1277.01 L1711.54,1277.21 L1711.64,1277.41 L1711.74,1277.51 L1711.74,1277.61 L1711.84,1277.61 L1711.94,1277.71 L1711.84,1277.81 L1711.74,1277.91 L1711.34,1278.11 L1711.34,1278.31 L1711.14,1278.21 L1710.84,1278.31 L1710.74,1278.31 L1710.74,1278.41 L1710.84,1278.41 L1710.94,1278.51 L1710.84,1278.51 L1710.64,1278.61 L1710.64,1278.51 L1710.74,1278.41 L1710.54,1278.41 L1710.64,1278.31 L1710.64,1278.21 L1710.64,1278.11 L1710.54,1278.01 L1710.54,1277.81 L1710.44,1277.71 L1710.44,1277.61 L1710.44,1277.41 L1710.34,1277.31 L1710.54,1277.21 L1710.64,1277.21 L1710.74,1277.11 L1710.84,1277.11 L1710.94,1277.01 L1711.04,1276.91 L1711.04,1276.91" vector-effect="none"/>
   <path fill-rule="evenodd" d="M1709.14,1275.61 L1709.24,1275.61 L1709.24,1275.41 L1709.44,1275.41 L1709.54,1275.31 L1709.64,1275.41 L1709.74,1275.71 L1709.74,1275.81 L1709.64,1275.81 L1709.54,1275.81 L1709.44,1275.91 L1709.34,1275.91 L1709.24,1275.91 L1709.14,1275.91 L1709.04,1276.01 L1708.84,1275.81 L1708.94,1275.61 L1709.04,1275.61 L1709.14,1275.61 L1709.14,1275.61 M1709.51,1275.47 L1709.51,1275.47 L1709.51,1275.47 L1709.51,1275.47 L1709.51,1275.47" vector-effect="none"/>
   <path fill-rule="evenodd" d="M1709.34,1276.51 L1708.74,1276.71 L1708.64,1276.81 L1708.64,1276.71 L1708.54,1276.61 L1708.54,1276.41 L1708.64,1276.31 L1708.74,1276.31 L1709.04,1276.31 L1709.14,1276.21 L1709.24,1276.21 L1709.34,1276.31 L1709.34,1276.51 L1709.34,1276.51" vector-effect="none"/>
   <path fill-rule="evenodd" d="M1710.84,1275.41 L1710.74,1275.41 L1710.64,1275.41 L1710.24,1275.51 L1710.14,1275.61 L1710.04,1275.21 L1710.14,1275.21 L1710.54,1275.31 L1710.74,1275.31 L1710.84,1275.31 L1710.84,1275.41 L1710.84,1275.41" vector-effect="none"/>
   <path fill-rule="evenodd" d="M1709.74,1275.71 L1709.64,1275.31 L1709.84,1275.21 L1710.04,1275.21 L1710.14,1275.61 L1709.94,1275.71 L1709.74,1275.81 L1709.74,1275.71 L1709.74,1275.71" vector-effect="none"/>
   <path fill-rule="evenodd" d="M1708.24,1276.51 L1708.24,1276.61 L1708.34,1276.61 L1708.34,1276.71 L1708.34,1276.81 L1708.44,1276.81 L1708.64,1276.81 L1708.54,1276.81 L1708.34,1276.91 L1708.24,1276.91 L1708.04,1276.91 L1708.14,1276.91 L1708.24,1276.81 L1708.24,1276.71 L1708.14,1276.61 L1708.24,1276.51 L1708.24,1276.51" vector-effect="none"/>
   <path fill-rule="evenodd" d="M1709.24,1276.01 L1708.84,1276.21 L1708.84,1276.01 L1709.14,1275.91 L1709.24,1275.91 L1709.24,1276.01 L1709.24,1276.01" vector-effect="none"/>
   <path fill-rule="evenodd" d="M1709.84,1276.01 L1709.84,1276.11 L1709.54,1276.21 L1709.54,1276.01 L1709.84,1276.01 L1709.84,1276.01" vector-effect="none"/>
   <path fill-rule="evenodd" d="M1709.53,1278.95 L1709.59,1279.12 L1709.44,1279.19 L1709.4,1279.13 L1709.37,1278.99 L1709.53,1278.95" vector-effect="none"/>
   <path fill-rule="evenodd" d="M1709.59,1278.85 L1709.49,1278.9 L1709.41,1278.72 L1709.53,1278.67 L1709.59,1278.85" vector-effect="none"/>
   <path fill-rule="evenodd" d="M1709.94,1279.31 L1709.94,1279.21 L1710.04,1279.01 L1710.14,1279.01 L1710.14,1279.11 L1710.04,1279.21 L1709.94,1279.31 L1709.94,1279.31" vector-effect="none"/>
   <path fill-rule="evenodd" d="M1709.94,1278.71 L1710.04,1278.71 L1710.04,1278.81 L1709.94,1278.71 L1709.94,1278.71" vector-effect="none"/>
   <path fill-rule="evenodd" d="M1708.64,1275.41 L1708.24,1275.41 L1708.44,1275.41 L1708.64,1275.41 L1708.64,1275.41" vector-effect="none"/>
   <path fill-rule="evenodd" d="M1704.14,1278.41 L1704.04,1278.51 L1703.94,1278.51 L1703.74,1278.51 L1703.64,1278.61 L1703.64,1278.51 L1703.54,1278.51 L1704.24,1278.21 L1704.44,1278.11 L1704.54,1278.11 L1704.54,1278.21 L1704.64,1278.21 L1704.74,1278.21 L1704.94,1278.11 L1705.14,1278.11 L1705.24,1278.11 L1705.34,1278.11 L1705.64,1278.01 L1705.54,1278.01 L1705.54,1278.11 L1705.54,1278.01 L1705.54,1278.11 L1705.44,1278.11 L1705.44,1278.21 L1705.44,1278.31 L1705.34,1278.31 L1705.34,1278.41 L1705.44,1278.31 L1705.44,1278.21 L1705.44,1278.11 L1705.54,1278.11 L1705.54,1278.21 L1705.64,1278.21 L1705.74,1278.21 L1705.84,1278.21 L1705.74,1278.21 L1705.54,1278.21 L1705.54,1278.11 L1705.64,1278.01 L1705.74,1278.01 L1705.84,1277.91 L1706.04,1277.81 L1706.04,1277.91 L1706.04,1278.01 L1706.04,1278.11 L1706.04,1277.91 L1706.04,1277.81 L1706.14,1277.91 L1706.44,1277.91 L1706.64,1277.81 L1706.84,1277.71 L1706.84,1278.01 L1706.74,1278.01 L1706.74,1278.11 L1706.84,1278.21 L1706.74,1278.21 L1706.84,1278.21 L1706.74,1278.11 L1706.74,1278.01 L1706.84,1278.01 L1706.94,1278.01 L1707.04,1278.01 L1706.94,1278.01 L1706.84,1278.01 L1706.84,1277.71 L1707.44,1277.51 L1707.54,1277.71 L1707.54,1277.81 L1707.54,1278.01 L1707.64,1278.11 L1707.54,1278.11 L1707.54,1278.21 L1707.44,1278.21 L1707.34,1278.21 L1707.24,1278.31 L1707.14,1278.31 L1707.04,1278.31 L1706.94,1278.31 L1706.84,1278.31 L1706.74,1278.31 L1706.64,1278.41 L1706.54,1278.41 L1706.44,1278.41 L1706.34,1278.51 L1706.24,1278.51 L1706.14,1278.51 L1705.84,1278.51 L1705.74,1278.51 L1705.74,1278.61 L1705.64,1278.61 L1705.54,1278.61 L1705.44,1278.61 L1705.34,1278.61 L1705.24,1278.61 L1705.34,1278.51 L1705.34,1278.41 L1705.34,1278.31 L1705.34,1278.41 L1705.34,1278.51 L1705.24,1278.61 L1705.14,1278.71 L1705.04,1278.71 L1704.94,1278.71 L1704.84,1278.71 L1704.84,1278.61 L1704.84,1278.71 L1704.64,1278.81 L1704.54,1278.81 L1704.44,1278.81 L1704.24,1278.91 L1704.14,1278.41 L1704.14,1278.41 M1704.46,1278.79 L1704.47,1278.79 L1704.47,1278.72 L1704.46,1278.72 L1704.46,1278.79 M1704.51,1278.67 L1704.54,1278.67 L1704.54,1278.63 L1704.51,1278.63 L1704.51,1278.67 M1704.54,1278.61 L1704.64,1278.61 L1704.74,1278.61 L1704.54,1278.61 L1704.54,1278.61 M1704.74,1278.31 L1704.74,1278.21 L1704.84,1278.21 L1704.74,1278.31 L1704.74,1278.31 M1704.89,1278.23 L1704.92,1278.23 L1704.92,1278.22 L1704.89,1278.22 L1704.89,1278.23 M1705.03,1278.2 L1705.15,1278.2 L1705.15,1278.16 L1705.03,1278.16 L1705.03,1278.2 M1705.44,1278.11 L1705.54,1278.11 L1705.44,1278.11 L1705.34,1278.11 L1705.24,1278.11 L1705.34,1278.11 L1705.44,1278.11 L1705.44,1278.11 M1706.24,1278.21 L1706.24,1278.31 L1706.24,1278.21 L1706.14,1278.21 L1706.24,1278.21 L1706.24,1278.31 L1706.24,1278.21 L1706.24,1278.21 M1706.43,1278.24 L1706.44,1278.24 L1706.44,1278.24 L1706.43,1278.24 L1706.43,1278.24 M1706.11,1278.22 L1706.12,1278.22 L1706.12,1278.21 L1706.11,1278.21 L1706.11,1278.22 M1705.83,1278.22 L1705.95,1278.22 L1705.95,1278.21 L1705.83,1278.21 L1705.83,1278.22 M1705.97,1278.21 L1706.08,1278.21 L1706.08,1278.18 L1705.97,1278.18 L1705.97,1278.21 M1706.44,1278.21 L1706.34,1278.21 L1706.34,1278.11 L1706.34,1278.21 L1706.44,1278.21 L1706.44,1278.21 M1706.9,1278.16 L1706.9,1278.16 L1706.9,1278.16 L1706.9,1278.16 L1706.9,1278.16 M1706.74,1278.21 L1706.64,1278.21 L1706.64,1278.11 L1706.34,1278.11 L1706.64,1278.11 L1706.64,1278.21 L1706.74,1278.21 L1706.74,1278.21 M1707.01,1278 L1707.13,1278 L1707.13,1277.98 L1707.01,1277.98 L1707.01,1278 M1707.15,1277.98 L1707.23,1277.98 L1707.23,1277.92 L1707.15,1277.92 L1707.15,1277.98 M1707.34,1277.81 L1707.54,1277.81 L1707.24,1277.81 L1707.34,1277.81 L1707.34,1277.81 M1707.26,1277.84 L1707.28,1277.84 L1707.28,1277.79 L1707.26,1277.79 L1707.26,1277.84" vector-effect="none"/>
   <path fill-rule="evenodd" d="M1707.84,1279.51 L1707.84,1279.71 L1707.64,1279.71 L1707.54,1279.71 L1707.44,1279.81 L1707.44,1279.71 L1707.54,1279.71 L1707.54,1279.61 L1707.64,1279.71 L1707.64,1279.61 L1707.74,1279.61 L1707.74,1279.51 L1707.84,1279.51 L1707.74,1279.51 L1707.54,1279.51 L1707.44,1279.51 L1707.34,1279.61 L1706.84,1279.71 L1706.74,1279.51 L1706.84,1279.71 L1706.74,1279.71 L1706.64,1279.61 L1706.64,1279.41 L1706.24,1279.21 L1706.14,1279.21 L1705.44,1279.61 L1705.54,1279.41 L1705.64,1279.41 L1705.64,1279.31 L1705.64,1279.21 L1705.74,1279.11 L1705.74,1279.01 L1705.74,1278.91 L1705.64,1278.81 L1705.54,1278.81 L1705.44,1278.81 L1705.34,1278.81 L1705.24,1278.71 L1705.24,1278.61 L1705.34,1278.61 L1705.44,1278.61 L1705.54,1278.61 L1705.64,1278.61 L1705.74,1278.61 L1705.84,1278.61 L1705.94,1278.51 L1706.04,1278.51 L1706.14,1278.51 L1706.24,1278.51 L1706.34,1278.51 L1706.44,1278.51 L1706.54,1278.41 L1706.64,1278.41 L1706.84,1278.31 L1706.94,1278.31 L1707.04,1278.31 L1707.14,1278.31 L1707.24,1278.31 L1707.34,1278.31 L1707.44,1278.21 L1707.54,1278.21 L1707.64,1278.11 L1707.74,1278.11 L1707.74,1278.31 L1707.74,1278.51 L1707.84,1278.81 L1707.84,1279.11 L1707.64,1279.21 L1707.34,1279.21 L1707.14,1279.31 L1706.94,1279.31 L1706.84,1279.31 L1706.74,1279.31 L1706.84,1279.31 L1706.94,1279.31 L1707.24,1279.31 L1707.54,1279.21 L1707.84,1279.11 L1707.94,1279.41 L1707.84,1279.41 L1707.84,1279.51 L1707.84,1279.51 M1706.54,1278.91 L1706.34,1279.01 L1706.74,1278.91 L1706.74,1278.81 L1706.74,1278.91 L1706.54,1278.91 L1706.54,1278.91 M1707.74,1278.61 L1707.54,1278.61 L1707.24,1278.71 L1706.94,1278.81 L1707.04,1278.81 L1707.24,1278.71 L1707.54,1278.61 L1707.74,1278.61 L1707.74,1278.61" vector-effect="none"/>
   <path fill-rule="evenodd" d="M1705.34,1279.11 L1705.44,1279.01 L1705.54,1279.01 L1705.64,1279.01 L1705.74,1279.01 L1705.64,1279.11 L1705.64,1279.21 L1705.54,1279.41 L1705.44,1279.51 L1705.34,1279.61 L1705.24,1279.71 L1705.14,1279.71 L1704.54,1279.81 L1704.34,1279.81 L1704.24,1279.81 L1704.14,1279.81 L1704.14,1279.41 L1704.34,1279.31 L1704.34,1279.41 L1704.84,1279.31 L1704.94,1279.21 L1705.34,1279.11 L1705.34,1279.11 M1704.9,1279.28 L1704.94,1279.28 L1704.94,1279.22 L1704.9,1279.22 L1704.9,1279.28" vector-effect="none"/>
   <path fill-rule="evenodd" d="M1704.64,1278.81 L1704.74,1278.81 L1704.74,1278.71 L1704.84,1278.71 L1704.94,1278.71 L1705.04,1278.71 L1705.24,1278.71 L1705.24,1278.81 L1705.34,1278.81 L1705.44,1278.81 L1705.54,1278.81 L1705.64,1278.91 L1705.74,1278.91 L1705.74,1279.01 L1705.64,1279.01 L1705.54,1279.01 L1705.44,1279.01 L1705.24,1279.11 L1705.04,1279.21 L1704.84,1279.21 L1704.74,1279.21 L1704.64,1279.31 L1704.34,1279.41 L1704.24,1278.91 L1704.44,1278.81 L1704.64,1278.81 L1704.64,1278.81" vector-effect="none"/>
   <path fill-rule="evenodd" d="M1704.74,1280.21 L1704.64,1280.21 L1704.54,1280.21 L1704.44,1280.21 L1704.34,1280.11 L1704.24,1280.01 L1704.14,1279.91 L1704.14,1279.81 L1704.24,1279.81 L1704.34,1279.91 L1704.64,1279.81 L1705.14,1279.81 L1704.94,1279.91 L1704.74,1280.11 L1704.74,1280.21 L1704.74,1280.21" vector-effect="none"/>
   <path fill-rule="evenodd" d="M1714.04,1276.01 L1713.94,1276.11 L1713.74,1276.11 L1713.64,1276.11 L1713.64,1276.21 L1713.44,1276.31 L1713.34,1276.31 L1713.24,1276.41 L1713.14,1276.41 L1713.14,1276.51 L1713.04,1276.51 L1712.94,1276.61 L1712.84,1276.61 L1712.74,1276.61 L1712.74,1276.71 L1712.64,1276.71 L1712.54,1276.81 L1712.44,1276.91 L1712.44,1277.01 L1712.24,1276.81 L1712.24,1276.71 L1712.14,1276.61 L1712.04,1276.61 L1712.04,1276.51 L1712.04,1276.41 L1711.94,1276.51 L1711.84,1276.51 L1711.74,1276.61 L1711.54,1276.71 L1711.54,1276.81 L1711.54,1276.91 L1711.44,1276.71 L1711.34,1276.61 L1711.24,1276.21 L1711.54,1276.11 L1711.44,1276.21 L1711.24,1276.21 L1710.94,1275.61 L1711.04,1275.51 L1711.24,1275.51 L1711.44,1275.41 L1711.54,1275.41 L1711.64,1275.31 L1711.74,1275.31 L1711.74,1275.21 L1711.84,1275.11 L1711.74,1275.01 L1712.14,1274.81 L1712.24,1274.81 L1712.64,1274.61 L1712.94,1274.51 L1712.94,1274.61 L1712.94,1274.71 L1712.94,1274.61 L1712.84,1274.71 L1712.94,1274.61 L1712.94,1274.71 L1712.94,1274.81 L1713.04,1274.81 L1713.04,1274.91 L1713.04,1275.01 L1712.94,1275.01 L1712.84,1275.01 L1712.74,1275.11 L1712.64,1275.11 L1712.54,1275.21 L1712.44,1275.21 L1712.34,1275.21 L1712.34,1275.31 L1712.24,1275.31 L1712.14,1275.41 L1711.94,1275.51 L1711.84,1275.51 L1711.74,1275.61 L1711.74,1275.51 L1711.74,1275.41 L1711.64,1275.51 L1711.54,1275.51 L1711.64,1275.51 L1711.74,1275.41 L1711.74,1275.51 L1711.74,1275.61 L1711.64,1275.61 L1711.54,1275.61 L1711.74,1275.61 L1711.84,1275.51 L1711.94,1275.51 L1712.14,1275.41 L1712.24,1275.31 L1712.34,1275.31 L1712.44,1275.21 L1712.54,1275.21 L1712.64,1275.21 L1712.64,1275.11 L1712.74,1275.11 L1712.84,1275.11 L1712.94,1275.01 L1713.04,1275.01 L1713.14,1275.01 L1713.14,1275.31 L1713.04,1275.31 L1713.14,1275.31 L1713.14,1275.41 L1712.94,1275.41 L1713.14,1275.81 L1713.14,1275.91 L1713.24,1275.91 L1713.34,1275.91 L1713.74,1275.61 L1714.04,1275.41 L1714.14,1275.61 L1714.24,1275.61 L1714.24,1275.71 L1714.14,1275.91 L1714.04,1276.01 L1714.04,1276.01 M1712.74,1276.31 L1712.34,1276.51 L1712.84,1276.21 L1712.74,1276.31 L1712.74,1276.31 M1713.24,1276.01 L1713.14,1276.11 L1712.94,1276.21 L1713.24,1276.01 L1713.24,1276.01 M1713.18,1276.04 L1713.19,1276.04 L1713.19,1276 L1713.18,1276 L1713.18,1276.04 M1714.05,1275.74 L1714.05,1275.74 L1714.05,1275.74 L1714.05,1275.74 L1714.05,1275.74 M1712.44,1275.81 L1711.84,1276.11 L1711.84,1276.01 L1711.84,1276.11 L1712.44,1275.81 L1712.44,1275.81 M1712.34,1275.71 L1712.24,1275.71 L1711.74,1275.91 L1711.84,1276.01 L1711.74,1275.91 L1712.34,1275.71 L1712.34,1275.71 M1712.43,1275.77 L1712.48,1275.77 L1712.48,1275.71 L1712.43,1275.71 L1712.43,1275.77 M1712.38,1275.53 L1712.38,1275.53 L1712.38,1275.52 L1712.38,1275.52 L1712.38,1275.53 M1711.5,1275.51 L1711.52,1275.51 L1711.52,1275.48 L1711.5,1275.48 L1711.5,1275.51 M1712.2,1275.48 L1712.35,1275.48 L1712.35,1275.43 L1712.2,1275.43 L1712.2,1275.48 M1712.12,1275.38 L1712.14,1275.38 L1712.14,1275.34 L1712.12,1275.34 L1712.12,1275.38 M1712.09,1275.29 L1712.09,1275.29 L1712.09,1275.29 L1712.09,1275.29 L1712.09,1275.29 M1711.94,1275.11 L1711.94,1275.01 L1712.04,1275.01 L1711.94,1275.01 L1711.94,1275.11 L1711.94,1275.11 M1712.07,1274.96 L1712.12,1274.96 L1712.12,1274.95 L1712.07,1274.95 L1712.07,1274.96 M1712.13,1274.95 L1712.18,1274.95 L1712.18,1274.93 L1712.13,1274.93 L1712.13,1274.95 M1712.2,1274.93 L1712.33,1274.93 L1712.33,1274.87 L1712.2,1274.87 L1712.2,1274.93 M1712.36,1274.84 L1712.38,1274.84 L1712.38,1274.82 L1712.36,1274.82 L1712.36,1274.84 M1712.4,1274.81 L1712.49,1274.81 L1712.49,1274.77 L1712.4,1274.77 L1712.4,1274.81 M1712.61,1275.7 L1712.61,1275.7 L1712.61,1275.7 L1712.61,1275.7 L1712.61,1275.7 M1712.66,1275.69 L1712.67,1275.69 L1712.67,1275.69 L1712.66,1275.69 L1712.66,1275.69 M1712.74,1275.71 L1712.84,1275.61 L1712.64,1275.71 L1712.74,1275.71 L1712.74,1275.71 M1712.83,1275.65 L1712.83,1275.65 L1712.83,1275.65 L1712.83,1275.65 L1712.83,1275.65 M1712.49,1275.48 L1712.54,1275.48 L1712.54,1275.44 L1712.49,1275.44 L1712.49,1275.48 M1712.78,1275.43 L1712.78,1275.43 L1712.78,1275.42 L1712.78,1275.42 L1712.78,1275.43 M1712.44,1275.21 L1712.54,1275.21 L1712.44,1275.21 L1712.54,1275.21 L1712.44,1275.21 L1712.44,1275.21 M1712.49,1275.24 L1712.51,1275.24 L1712.51,1275.23 L1712.49,1275.23 L1712.49,1275.24 M1712.51,1275.23 L1712.52,1275.23 L1712.52,1275.22 L1712.51,1275.22 L1712.51,1275.23 M1712.84,1274.81 L1712.84,1274.71 L1712.84,1274.81 L1712.74,1274.81 L1712.64,1274.81 L1712.54,1274.81 L1712.44,1274.81 L1712.34,1274.91 L1712.24,1275.01 L1712.14,1275.01 L1712.04,1275.01 L1712.04,1275.11 L1712.24,1275.11 L1712.34,1275.11 L1712.34,1275.01 L1712.44,1275.01 L1712.64,1274.91 L1712.74,1274.91 L1712.84,1274.91 L1712.94,1274.91 L1712.84,1274.81 L1712.84,1274.81 M1712.54,1274.71 L1712.64,1274.71 L1712.54,1274.81 L1712.54,1274.71 L1712.54,1274.71 M1712.63,1274.75 L1712.69,1274.75 L1712.69,1274.74 L1712.63,1274.74 L1712.63,1274.75 M1712.7,1274.74 L1712.79,1274.74 L1712.79,1274.71 L1712.7,1274.71 L1712.7,1274.74" vector-effect="none"/>
   <path fill-rule="evenodd" d="M1712.54,1277.31 L1712.44,1277.11 L1712.44,1277.01 L1712.44,1276.91 L1712.54,1276.81 L1712.64,1276.81 L1712.64,1276.71 L1712.74,1276.71 L1712.84,1276.61 L1712.94,1276.61 L1713.14,1276.51 L1713.14,1276.41 L1713.24,1276.41 L1713.34,1276.41 L1713.44,1276.31 L1713.54,1276.21 L1713.64,1276.21 L1713.74,1276.11 L1713.84,1276.11 L1713.94,1276.11 L1714.04,1276.01 L1714.04,1276.31 L1714.04,1276.51 L1714.04,1276.61 L1713.94,1276.51 L1713.84,1276.31 L1713.84,1276.21 L1713.54,1276.31 L1713.54,1276.41 L1713.74,1276.61 L1713.64,1276.71 L1713.54,1276.71 L1713.44,1276.81 L1713.34,1276.91 L1713.04,1277.01 L1712.94,1277.11 L1712.84,1277.11 L1712.84,1277.21 L1712.74,1277.21 L1712.64,1277.31 L1712.54,1277.41 L1712.54,1277.31 L1712.54,1277.31" vector-effect="none"/>
   <path fill-rule="evenodd" d="M1711.84,1277.81 L1711.94,1277.71 L1711.74,1277.51 L1711.74,1277.41 L1711.64,1277.31 L1711.64,1277.21 L1711.54,1277.11 L1711.54,1277.01 L1711.54,1276.91 L1711.54,1276.81 L1711.64,1276.71 L1711.74,1276.61 L1711.84,1276.51 L1712.04,1276.51 L1712.04,1276.61 L1712.14,1276.71 L1712.24,1276.81 L1712.34,1277.01 L1712.44,1277.11 L1712.54,1277.31 L1712.54,1277.41 L1712.44,1277.51 L1712.34,1277.61 L1712.24,1277.71 L1712.14,1277.71 L1711.74,1277.91 L1711.84,1277.91 L1711.84,1277.81 L1711.84,1277.81" vector-effect="none"/>
   <path fill-rule="evenodd" d="M1713.44,1274.41 L1713.44,1274.51 L1713.44,1274.61 L1713.54,1274.81 L1713.24,1274.91 L1713.24,1274.81 L1713.14,1274.61 L1712.94,1274.61 L1712.94,1274.71 L1712.94,1274.61 L1712.94,1274.51 L1713.04,1274.51 L1713.24,1274.51 L1713.44,1274.41 L1713.44,1274.41 M1713.18,1274.61 L1713.21,1274.61 L1713.21,1274.56 L1713.18,1274.56 L1713.18,1274.61 M1713.02,1274.59 L1713.09,1274.59 L1713.09,1274.57 L1713.02,1274.57 L1713.02,1274.59 M1713.44,1274.61 L1713.44,1274.51 L1713.44,1274.61 L1713.24,1274.61 L1713.34,1274.61 L1713.44,1274.61 L1713.44,1274.61 M1713.14,1274.56 L1713.17,1274.56 L1713.17,1274.56 L1713.14,1274.56 L1713.14,1274.56" vector-effect="none"/>
  </g>
  <g stroke-opacity="1" font-size="34.375" stroke="#000000" font-style="normal" fill="none" font-weight="400" stroke-width="1" stroke-linecap="square" transform="matrix(0.999751,0,0,0.999751,8.39015e-14,-8.39015e-14)" font-family="MS Shell Dlg 2" stroke-linejoin="bevel"/>
  <g stroke-opacity="1" font-size="34.375" stroke="#000000" font-style="normal" fill="none" font-weight="400" stroke-width="1" stroke-linecap="square" transform="matrix(11.8081,0,0,11.8081,8.39015e-14,-8.39015e-14)" font-family="MS Shell Dlg 2" stroke-linejoin="bevel"/>
  <g stroke-opacity="1" font-size="34.375" stroke="#000000" font-style="normal" fill="none" font-weight="400" stroke-width="1" stroke-linecap="square" transform="matrix(11.8081,0,0,11.8081,8.39015e-14,-8.39015e-14)" font-family="MS Shell Dlg 2" stroke-linejoin="bevel"/>
  <g stroke-opacity="1" font-size="34.375" stroke="#000000" font-style="normal" fill="none" font-weight="400" stroke-width="1" stroke-linecap="square" transform="matrix(11.8081,0,0,11.8081,8.39015e-14,-8.39015e-14)" font-family="MS Shell Dlg 2" stroke-linejoin="bevel"/>
  <g stroke-opacity="1" font-size="34.375" stroke="#000000" font-style="normal" fill="none" font-weight="400" stroke-width="1" stroke-linecap="square" transform="matrix(1,0,0,1,0,0)" font-family="MS Shell Dlg 2" stroke-linejoin="bevel"/>
  <g stroke-opacity="1" font-size="34.375" stroke="#000000" font-style="normal" fill="none" font-weight="400" stroke-width="1" stroke-linecap="square" transform="matrix(11.8081,0,0,11.8081,8.39015e-14,-8.39015e-14)" font-family="MS Shell Dlg 2" stroke-linejoin="bevel"/>
  <g stroke-opacity="1" font-size="34.375" stroke="#000000" font-style="normal" fill="none" font-weight="400" stroke-width="1" stroke-linecap="square" transform="matrix(11.8081,0,0,11.8081,8.39015e-14,-8.39015e-14)" font-family="MS Shell Dlg 2" stroke-linejoin="bevel"/>
  <g stroke-opacity="1" font-size="34.375" stroke="#000000" font-style="normal" fill="none" font-weight="400" stroke-width="1" stroke-linecap="square" transform="matrix(11.8081,0,0,11.8081,0,0)" font-family="MS Shell Dlg 2" stroke-linejoin="bevel"/>
  <g stroke-opacity="1" font-size="34.375" stroke="#000000" font-style="normal" fill="none" font-weight="400" stroke-width="1" stroke-linecap="square" transform="matrix(11.8081,0,0,11.8081,0,0)" font-family="MS Shell Dlg 2" stroke-linejoin="bevel"/>
  <g stroke-opacity="1" font-size="34.375" stroke="#000000" font-style="normal" fill="none" font-weight="400" stroke-width="1" stroke-linecap="square" transform="matrix(1,0,0,1,0,0)" font-family="MS Shell Dlg 2" stroke-linejoin="bevel"/>
 </g>
 <metadata>
  <rdf:RDF xmlns:rdfs="http://www.w3.org/2000/01/rdf-schema#" xmlns:dc="http://purl.org/dc/elements/1.1/" xmlns:rdf="http://www.w3.org/1999/02/22-rdf-syntax-ns#">
   <rdf:Description dc:title="" dc:date="2025-01-28T10:41:50" dc:identifier="" dc:description="" dc:format="image/svg+xml">
    <dc:creator>
     <rdf:Bag>
      <rdf:li>Gauthier Ligot</rdf:li>
     </rdf:Bag>
    </dc:creator>
    <dc:publisher>
     <rdf:Bag>
      <rdf:li>QGIS 3.32.3-Lima</rdf:li>
     </rdf:Bag>
    </dc:publisher>
    <dc:subject>
     <rdf:Bag/>
    </dc:subject>
   </rdf:Description>
   <cc:Work rdf:about="">
    <dc:format>image/svg+xml</dc:format>
    <dc:title></dc:title>
    <dc:date>2025-01-28T10:41:50</dc:date>
    <dc:identifier></dc:identifier>
    <dc:description></dc:description>
    <dc:creator>
     <cc:Agent>
      <dc:title>Gauthier Ligot</dc:title>
     </cc:Agent>
    </dc:creator>
    <dc:publisher>
     <cc:Agent>
      <dc:title>QGIS 3.32.3-Lima</dc:title>
     </cc:Agent>
    </dc:publisher>
   </cc:Work>
  </rdf:RDF>
 </metadata>
</svg>
